<?xml version="1.0" encoding="UTF-8" standalone="no"?>
<svg
   xmlns:dc="http://purl.org/dc/elements/1.1/"
   xmlns:cc="http://creativecommons.org/ns#"
   xmlns:rdf="http://www.w3.org/1999/02/22-rdf-syntax-ns#"
   xmlns:svg="http://www.w3.org/2000/svg"
   xmlns="http://www.w3.org/2000/svg"
   xmlns:sodipodi="http://sodipodi.sourceforge.net/DTD/sodipodi-0.dtd"
   xmlns:inkscape="http://www.inkscape.org/namespaces/inkscape"
   inkscape:version="1.0 (1f3f8bd44a, 2020-05-13)"
   sodipodi:docname="icons.svg"
   id="svg2974"
   version="1.1">
  <metadata
     id="metadata2980">
    <rdf:RDF>
      <cc:Work
         rdf:about="">
        <dc:format>image/svg+xml</dc:format>
        <dc:type
           rdf:resource="http://purl.org/dc/dcmitype/StillImage" />
        <dc:title></dc:title>
      </cc:Work>
    </rdf:RDF>
  </metadata>
  <defs
     id="defs2978">
    <symbol
       id="symbol9947"
       viewBox="0 0 24 24">
      <path
         fill="var(--color-shape)"
         d="M400 32H48A48 48 0 0 0 0 80v352a48 48 0 0 0 48 48h137.25V327.69h-63V256h63v-54.64c0-62.15 37-96.48 93.67-96.48 27.14 0 55.52 4.84 55.52 4.84v61h-31.27c-30.81 0-40.42 19.12-40.42 38.73V256h68.78l-11 71.69h-57.78V480H400a48 48 0 0 0 48-48V80a48 48 0 0 0-48-48z"
         class=""
         id="path2971-6" />
    </symbol>
    <symbol
       id="symbol10599"
       viewBox="0 0 24 24">
      <circle
         cx="12"
         cy="12"
         r="10"
         fill="var(--color-base)"
         id="circle2142-7" />
      <path
         fill="var(--color-shape)"
         d="M15.3 10.3a1 1 0 0 1 1.4 1.4l-4 4a1 1 0 0 1-1.4 0l-4-4a1 1 0 0 1 1.4-1.4l3.3 3.29 3.3-3.3z"
         id="path2144-5" />
    </symbol>
    <symbol
       id="symbol11883"
       viewBox="0 0 24 24">
      <circle
         cx="12"
         cy="12"
         r="10"
         fill="var(--color-base)"
         id="circle2142-3" />
      <path
         fill="var(--color-shape)"
         d="M15.3 10.3a1 1 0 0 1 1.4 1.4l-4 4a1 1 0 0 1-1.4 0l-4-4a1 1 0 0 1 1.4-1.4l3.3 3.29 3.3-3.3z"
         id="path2144-56" />
    </symbol>
    <symbol
       id="symbol13802"
       viewBox="0 0 24 24">
      <path
         fill="var(--color-shape)"
         d="M 20.857142,3 H 5.1428571 A 2.1428571,2.1428571 0 0 0 3,5.1428571 V 20.857142 A 2.1428571,2.1428571 0 0 0 5.1428571,23 H 11.270089 V 16.200446 H 8.4575893 V 13 h 2.8124997 v -2.439286 c 0,-2.7745534 1.651786,-4.3071426 4.181697,-4.3071426 1.211607,0 2.478571,0.2160715 2.478571,0.2160715 v 2.7232142 h -1.395982 c -1.375446,0 -1.804464,0.8535719 -1.804464,1.7290179 V 13 h 3.070535 l -0.491071,3.200446 H 14.729911 V 23 h 6.127231 A 2.1428571,2.1428571 0 0 0 23,20.857142 V 5.1428571 A 2.1428571,2.1428571 0 0 0 20.857142,3 Z"
         class=""
         id="path2971-2"
         style="display:inline;stroke-width:0.0446429" />
    </symbol>
    <symbol
       id="symbol14462"
       viewBox="0 0 24 24">
      <circle
         cx="12"
         cy="12"
         r="10"
         fill="var(--color-base)"
         id="circle2142-9" />
      <path
         fill="var(--color-shape)"
         d="m 15.3,10.3 a 1,1 0 0 1 1.4,1.4 l -4,4 a 1,1 0 0 1 -1.4,0 l -4,-4 a 1,1 0 0 1 1.4,-1.4 l 3.3,3.29 3.3,-3.3 z"
         id="path2144-1" />
    </symbol>
  </defs>
  <sodipodi:namedview
     inkscape:current-layer="add-circle"
     inkscape:window-maximized="1"
     inkscape:window-y="25"
     inkscape:window-x="0"
     inkscape:cy="-0.55943148"
     inkscape:cx="6.8600941"
     inkscape:zoom="5.6568543"
     showgrid="false"
     id="namedview2976"
     inkscape:window-height="1025"
     inkscape:window-width="1920"
     inkscape:pageshadow="2"
     inkscape:pageopacity="0"
     guidetolerance="10"
     gridtolerance="10"
     objecttolerance="10"
     borderopacity="1"
     bordercolor="#666666"
     pagecolor="#ffffff" />
  <symbol
     viewBox="0 0 24 24"
     id="add-circle">
    <circle
       id="circle1927"
       fill="var(--color-base)"
       r="10"
       cy="12"
       cx="12" />
    <path
       id="path1929"
       d="m 13,11 h 4 a 1,1 0 0 1 0,2 h -4 v 4 a 1,1 0 0 1 -2,0 V 13 H 7 a 1,1 0 0 1 0,-2 h 4 V 7 a 1,1 0 0 1 2,0 z"
       fill="var(--color-shape)" />
  </symbol>
  <symbol
     viewBox="0 0 24 24"
     id="add-square">
    <rect
       id="rect1932"
       rx="2"
       fill="var(--color-base)"
       y="3"
       x="3"
       height="18"
       width="18" />
    <path
       id="path1934"
       d="M13 11h4a1 1 0 0 1 0 2h-4v4a1 1 0 0 1-2 0v-4H7a1 1 0 0 1 0-2h4V7a1 1 0 0 1 2 0v4z"
       fill="var(--color-shape)" />
  </symbol>
  <symbol
     viewBox="0 0 24 24"
     id="add">
    <path
       id="path1937"
       d="M17 11a1 1 0 0 1 0 2h-4v4a1 1 0 0 1-2 0v-4H7a1 1 0 0 1 0-2h4V7a1 1 0 0 1 2 0v4h4z"
       fill-rule="evenodd"
       fill="var(--color-shape)" />
  </symbol>
  <symbol
     viewBox="0 0 24 24"
     id="airplane">
    <path
       id="path1940"
       d="M19 11.9l2.7 1.14c.18.08.3.26.3.46v2a.5.5 0 0 1-.6.49L12 14 2.6 16a.5.5 0 0 1-.6-.49v-2c0-.2.12-.38.3-.46L5 11.9V10a1 1 0 1 1 2 0v1.06l4.8-2.02a.5.5 0 0 1 .4 0l4.8 2.02V10a1 1 0 0 1 2 0v1.9z"
       fill="var(--color-shape)" />
    <path
       id="path1942"
       d="M12 2a2 2 0 0 1 2 2v8l-1 8h-2l-1-8V4c0-1.1.9-2 2-2z"
       fill="var(--color-base)" />
    <path
       id="path1944"
       d="M8.64 22.98c-.32.1-.64-.17-.64-.54v-1.1c0-.19.08-.35.2-.46l3.5-2.78c.18-.13.42-.13.6 0l3.5 2.78c.12.1.2.27.2.45v1.11c0 .37-.32.64-.64.54L12 21.9l-3.36 1.07z"
       fill="var(--color-shape)" />
  </symbol>
  <symbol
     viewBox="0 0 24 24"
     id="announcement">
    <path
       id="path1947"
       d="M5.04 14.3l-.1-.3H4a2 2 0 0 1-2-2v-2c0-1.1.9-2 2-2h1a1 1 0 0 1 1-1h6.34a3 3 0 0 0 2.12-.88l1.66-1.66A5 5 0 0 1 19.66 3H21a1 1 0 0 1 1 1v14a1 1 0 0 1-1 1h-1.34a5 5 0 0 1-3.54-1.46l-1.66-1.66a3 3 0 0 0-2.12-.88H11v5a1 1 0 0 1-1 1H8a1 1 0 0 1-.95-.68l-2-5.98a1 1 0 0 1 0-.05z"
       fill="var(--color-base)" />
    <rect
       id="rect1949"
       rx="1"
       fill="var(--color-shape)"
       y="6"
       x="4"
       height="10"
       width="8" />
  </symbol>
  <symbol
     viewBox="0 0 24 24"
     id="application">
    <path
       id="path1952"
       d="M4 3h16a2 2 0 0 1 2 2v14a2 2 0 0 1-2 2H4a2 2 0 0 1-2-2V5c0-1.1.9-2 2-2zm0 6v10h16V9H4z"
       fill="var(--color-base)" />
    <path
       id="path1954"
       d="M5 7a1 1 0 1 1 0-2 1 1 0 0 1 0 2zm3 0a1 1 0 1 1 0-2 1 1 0 0 1 0 2zm3 0a1 1 0 1 1 0-2 1 1 0 0 1 0 2z"
       fill="var(--color-shape)" />
  </symbol>
  <symbol
     viewBox="0 0 24 24"
     id="archive">
    <g
       id="g1961">
      <path
         id="path1957"
         d="M20.77 5a2 2 0 0 1-.02.22l-1.55 14A2 2 0 0 1 17.2 21H6.79a2 2 0 0 1-1.99-1.78l-1.55-14L3.23 5h17.54z"
         fill="var(--color-shape)" />
      <path
         id="path1959"
         d="M10.59 14l-2.3-2.3a1 1 0 0 1 1.42-1.4L12 12.58l2.3-2.3a1 1 0 0 1 1.4 1.42L13.42 14l2.3 2.3a1 1 0 0 1-1.42 1.4L12 15.42l-2.3 2.3a1 1 0 1 1-1.4-1.42L10.58 14zM4 3h16a2 2 0 0 1 2 2v1a1 1 0 0 1-1 1H3a1 1 0 0 1-1-1V5c0-1.1.9-2 2-2z"
         fill="var(--color-base)" />
    </g>
  </symbol>
  <symbol
     viewBox="0 0 24 24"
     id="arrow-thick-down-circle">
    <circle
       id="circle1964"
       fill="var(--color-base)"
       r="10"
       cy="12"
       cx="12" />
    <path
       id="path1966"
       d="M10 12V7a1 1 0 0 1 1-1h2a1 1 0 0 1 1 1v5h2a1 1 0 0 1 .7 1.7l-4 4a1 1 0 0 1-1.4 0l-4-4A1 1 0 0 1 8 12h2z"
       fill="var(--color-shape)" />
  </symbol>
  <symbol
     viewBox="0 0 24 24"
     id="arrow-thick-left-circle">
    <circle
       id="circle1969"
       fill="var(--color-base)"
       r="10"
       cy="12"
       cx="12" />
    <path
       id="path1971"
       d="M12 10h5a1 1 0 0 1 1 1v2a1 1 0 0 1-1 1h-5v2a1 1 0 0 1-1.7.7l-4-4a1 1 0 0 1 0-1.4l4-4A1 1 0 0 1 12 8v2z"
       fill="var(--color-shape)" />
  </symbol>
  <symbol
     viewBox="0 0 24 24"
     id="arrow-thick-right-circle">
    <circle
       id="circle1974"
       fill="var(--color-base)"
       r="10"
       cy="12"
       cx="12" />
    <path
       id="path1976"
       d="M12 14H7a1 1 0 0 1-1-1v-2a1 1 0 0 1 1-1h5V8a1 1 0 0 1 1.7-.7l4 4a1 1 0 0 1 0 1.4l-4 4A1 1 0 0 1 12 16v-2z"
       fill="var(--color-shape)" />
  </symbol>
  <symbol
     viewBox="0 0 24 24"
     id="arrow-thick-up-circle">
    <circle
       id="circle1979"
       fill="var(--color-base)"
       r="10"
       cy="12"
       cx="12" />
    <path
       id="path1981"
       d="M14 12v5a1 1 0 0 1-1 1h-2a1 1 0 0 1-1-1v-5H8a1 1 0 0 1-.7-1.7l4-4a1 1 0 0 1 1.4 0l4 4A1 1 0 0 1 16 12h-2z"
       fill="var(--color-shape)" />
  </symbol>
  <symbol
     viewBox="0 0 24 24"
     id="arrow-thin-down-circle">
    <circle
       id="circle1984"
       fill="var(--color-base)"
       r="10"
       cy="12"
       cx="12" />
    <path
       id="path1986"
       d="M11 14.59V7a1 1 0 0 1 2 0v7.59l2.3-2.3a1 1 0 1 1 1.4 1.42l-4 4a1 1 0 0 1-1.4 0l-4-4a1 1 0 0 1 1.4-1.42l2.3 2.3z"
       fill="var(--color-shape)" />
  </symbol>
  <symbol
     viewBox="0 0 24 24"
     id="arrow-thin-left-circle">
    <circle
       id="circle1989"
       fill="var(--color-base)"
       r="10"
       cy="12"
       cx="12" />
    <path
       id="path1991"
       d="M9.41 11H17a1 1 0 0 1 0 2H9.41l2.3 2.3a1 1 0 1 1-1.42 1.4l-4-4a1 1 0 0 1 0-1.4l4-4a1 1 0 0 1 1.42 1.4L9.4 11z"
       fill="var(--color-shape)" />
  </symbol>
  <symbol
     viewBox="0 0 24 24"
     id="arrow-thin-right-circle">
    <circle
       id="circle1994"
       fill="var(--color-base)"
       r="10"
       cy="12"
       cx="12" />
    <path
       id="path1996"
       d="M14.59 13H7a1 1 0 0 1 0-2h7.59l-2.3-2.3a1 1 0 1 1 1.42-1.4l4 4a1 1 0 0 1 0 1.4l-4 4a1 1 0 0 1-1.42-1.4l2.3-2.3z"
       fill="var(--color-shape)" />
  </symbol>
  <symbol
     viewBox="0 0 24 24"
     id="arrow-thin-up-circle">
    <circle
       id="circle1999"
       fill="var(--color-base)"
       r="10"
       cy="12"
       cx="12" />
    <path
       id="path2001"
       d="M13 9.41V17a1 1 0 0 1-2 0V9.41l-2.3 2.3a1 1 0 1 1-1.4-1.42l4-4a1 1 0 0 1 1.4 0l4 4a1 1 0 0 1-1.4 1.42L13 9.4z"
       fill="var(--color-shape)" />
  </symbol>
  <symbol
     viewBox="0 0 24 24"
     id="arrows-merge">
    <g
       id="g2008">
      <path
         id="path2004"
         d="M10 6h4v1.86a8 8 0 0 0 2.34 5.65l5.37 5.37a1 1 0 0 1 0 1.41l-1.42 1.42a1 1 0 0 1-1.41 0l-5.37-5.37A12 12 0 0 1 10 7.86V6z"
         fill="var(--color-shape)" />
      <path
         id="path2006"
         d="M13.95 9a12 12 0 0 1-3.46 7.34l-5.37 5.37a1 1 0 0 1-1.41 0l-1.42-1.42a1 1 0 0 1 0-1.41l5.37-5.37A8 8 0 0 0 9.92 9H7a1 1 0 0 1-.7-1.7l5-5a1 1 0 0 1 1.4 0l5 5A1 1 0 0 1 17 9h-3.05z"
         fill="var(--color-base)" />
    </g>
  </symbol>
  <symbol
     viewBox="0 0 24 24"
     id="arrows-split">
    <g
       id="g2015">
      <path
         id="path2011"
         d="M14 16l-3.45-3.45a12 12 0 0 1 2.96-4.9l2.37-2.36-1.59-1.58A1 1 0 0 1 15 2h6a1 1 0 0 1 1 1v6a1 1 0 0 1-1.7.7l-1.6-1.58-2.36 2.37A8 8 0 0 0 14 16z"
         fill-rule="nonzero"
         fill="var(--color-shape)" />
      <path
         id="path2013"
         d="M8.12 5.3l2.37 2.36A12 12 0 0 1 14 16.14V21a1 1 0 0 1-1 1h-2a1 1 0 0 1-1-1v-4.86a8 8 0 0 0-2.34-5.65L5.29 8.12 3.71 9.71A1 1 0 0 1 2 9V3a1 1 0 0 1 1-1h6a1 1 0 0 1 .7 1.7L8.13 5.3z"
         fill="var(--color-base)" />
    </g>
  </symbol>
  <symbol
     viewBox="0 0 24 24"
     id="asterisk">
    <circle
       id="circle2018"
       fill="var(--color-base)"
       r="10"
       cy="12"
       cx="12" />
    <path
       id="path2020"
       d="M11 10.62V7a1 1 0 0 1 2 0v3.62l3.45-1.12a1 1 0 0 1 .61 1.9l-3.44 1.13 2.13 2.93a1 1 0 0 1-1.62 1.17L12 13.7l-2.13 2.93a1 1 0 1 1-1.62-1.17l2.13-2.93-3.44-1.12a1 1 0 1 1 .61-1.9L11 10.61z"
       fill="var(--color-shape)" />
  </symbol>
  <symbol
     viewBox="0 0 24 24"
     id="at">
    <path
       id="path2023"
       d="M15.6 15.47A4.99 4.99 0 0 1 7 12a5 5 0 0 1 10 0v1.5a1.5 1.5 0 1 0 3 0V12a8 8 0 1 0-4.94 7.4 1 1 0 1 1 .77 1.84A10 10 0 1 1 22 12v1.5a3.5 3.5 0 0 1-6.4 1.97zM12 15a3 3 0 1 0 0-6 3 3 0 0 0 0 6z"
       fill="var(--color-shape)" />
  </symbol>
  <symbol
     viewBox="0 0 24 24"
     id="attach">
    <path
       id="path2026"
       d="M20.12 11.95l-6.58 6.59a5 5 0 1 1-7.08-7.07l6.59-6.6a3 3 0 0 1 4.24 4.25l-6.58 6.59a1 1 0 1 1-1.42-1.42l6.59-6.58a1 1 0 0 0-1.42-1.42l-6.58 6.59a3 3 0 0 0 4.24 4.24l6.59-6.58a5 5 0 0 0-7.08-7.08l-6.58 6.6a7 7 0 0 0 9.9 9.9l6.59-6.6a1 1 0 0 0-1.42-1.4z"
       fill="var(--color-shape)" />
  </symbol>
  <symbol
     viewBox="0 0 24 24"
     id="battery-full">
    <path
       id="path2029"
       d="M20 9h1a1 1 0 0 1 1 1v4a1 1 0 0 1-1 1h-1v1a2 2 0 0 1-2 2H4a2 2 0 0 1-2-2V8c0-1.1.9-2 2-2h14a2 2 0 0 1 2 2v1zM4 8v8h14V8H4z"
       fill="var(--color-base)" />
    <rect
       id="rect2031"
       fill="var(--color-shape)"
       y="10"
       x="6"
       height="4"
       width="10" />
  </symbol>
  <symbol
     viewBox="0 0 24 24"
     id="battery-half">
    <path
       id="path2034"
       d="M20 9h1a1 1 0 0 1 1 1v4a1 1 0 0 1-1 1h-1v1a2 2 0 0 1-2 2H4a2 2 0 0 1-2-2V8c0-1.1.9-2 2-2h14a2 2 0 0 1 2 2v1zM4 8v8h14V8H4z"
       fill="var(--color-base)" />
    <rect
       id="rect2036"
       fill="var(--color-shape)"
       y="10"
       x="6"
       height="4"
       width="6" />
  </symbol>
  <symbol
     viewBox="0 0 24 24"
     id="bolt">
    <circle
       id="circle2039"
       fill="var(--color-base)"
       r="10"
       cy="12"
       cx="12" />
    <path
       id="path2041"
       d="M14 10h2a1 1 0 0 1 .81 1.58l-5 7A1 1 0 0 1 10 18v-4H8a1 1 0 0 1-.81-1.58l5-7A1 1 0 0 1 14 6v4z"
       fill="var(--color-shape)" />
  </symbol>
  <symbol
     viewBox="0 0 24 24"
     id="book-closed">
    <g
       id="g2048">
      <path
         id="path2044"
         d="M5 3h2l5 2 5-2h2a2 2 0 0 1 2 2v14a2 2 0 0 1-2 2H5a2 2 0 0 1-2-2V5c0-1.1.9-2 2-2z"
         fill="var(--color-shape)" />
      <path
         id="path2046"
         d="M7 3h10v11a1 1 0 0 1-1.45.9L12 13.11l-3.55 1.77A1 1 0 0 1 7 14V3z"
         fill="var(--color-base)" />
    </g>
  </symbol>
  <symbol
     viewBox="0 0 24 24"
     id="book-open">
    <g
       id="g2055">
      <path
         id="path2051"
         d="M12 21a2 2 0 0 1-1.41-.59l-.83-.82A2 2 0 0 0 8.34 19H4a1 1 0 0 1-1-1V4a1 1 0 0 1 1-1h4a5 5 0 0 1 4 2v16z"
         fill="var(--color-shape)" />
      <path
         id="path2053"
         d="M12 21V5a5 5 0 0 1 4-2h4a1 1 0 0 1 1 1v14a1 1 0 0 1-1 1h-4.34a2 2 0 0 0-1.42.59l-.83.82A2 2 0 0 1 12 21z"
         fill="var(--color-base)" />
    </g>
  </symbol>
  <symbol
     viewBox="0 0 24 24"
     id="box">
    <g
       id="g2062">
      <path
         id="path2058"
         d="M5 5h14a2 2 0 0 1 2 2v12a2 2 0 0 1-2 2H5a2 2 0 0 1-2-2V7c0-1.1.9-2 2-2zm4 5a1 1 0 0 0 0 2h6a1 1 0 0 0 0-2H9z"
         fill="var(--color-shape)" />
      <path
         id="path2060"
         d="M4 3h16a2 2 0 0 1 2 2v1a1 1 0 0 1-1 1H3a1 1 0 0 1-1-1V5c0-1.1.9-2 2-2z"
         fill="var(--color-base)" />
    </g>
  </symbol>
  <symbol
     viewBox="0 0 24 24"
     id="brick">
    <path
       id="path2065"
       d="M3 6l9 4v12l-9-4V6zm14-3v2c0 1.1-2.24 2-5 2s-5-.9-5-2V3c0 1.1 2.24 2 5 2s5-.9 5-2z"
       fill="var(--color-base)" />
    <polygon
       id="polygon2067"
       points="21 6 12 10 12 22 21 18"
       fill="var(--color-shape)" />
  </symbol>
  <symbol
     viewBox="0 0 24 24"
     id="bug">
    <path
       id="path2070"
       d="M3 9a1 1 0 1 1 2 0c0 1.1.9 2 2 2h1v2H7a4 4 0 0 1-4-4zm18 0a4 4 0 0 1-4 4h-1v-2h1a2 2 0 0 0 2-2 1 1 0 0 1 2 0zM4 21a4 4 0 0 1 4-4h1v2H8a2 2 0 0 0-2 2 1 1 0 0 1-2 0zm-1-7h4a1 1 0 0 1 0 2H3a1 1 0 0 1 0-2zm14 0h4a1 1 0 0 1 0 2h-4a1 1 0 0 1 0-2zm3 7a1 1 0 0 1-2 0 2 2 0 0 0-2-2h-1v-2h1a4 4 0 0 1 4 4zM8.27 3.67a5 5 0 0 1 7.46 0A2 2 0 0 1 14.23 7H9.77a2 2 0 0 1-1.49-3.33z"
       fill="var(--color-shape)" />
    <path
       id="path2072"
       d="M13 19.58V13a1 1 0 0 0-2 0v6.58a1 1 0 0 1-1.4.92A6 6 0 0 1 6 15v-3a4 4 0 0 1 4-4h4a4 4 0 0 1 4 4v3a6 6 0 0 1-3.6 5.5 1 1 0 0 1-1.4-.92z"
       fill="var(--color-base)" />
  </symbol>
  <symbol
     viewBox="0 0 24 24"
     id="buoy">
    <g
       id="g2079">
      <path
         id="path2075"
         d="M2.43 14.92A2 2 0 0 1 1 13v-2a2 2 0 0 1 1.43-1.92 10.02 10.02 0 0 1 6.65-6.65A2 2 0 0 1 11 1h2a2 2 0 0 1 1.92 1.43c3.17.97 5.68 3.48 6.65 6.65A2 2 0 0 1 23 11v2a2 2 0 0 1-1.43 1.92 10.02 10.02 0 0 1-6.65 6.65A2 2 0 0 1 13 23h-2a2 2 0 0 1-1.92-1.43 10.02 10.02 0 0 1-6.65-6.65zM12 17l1.79-1.42a4.02 4.02 0 0 0 1.8-1.8L17 12l-1.42-1.79a4.02 4.02 0 0 0-1.8-1.79L12 7l-1.79 1.42a4.02 4.02 0 0 0-1.79 1.8L7 12l1.42 1.78c.39.78 1.02 1.41 1.8 1.8L12 17z"
         fill="var(--color-shape)" />
      <path
         id="path2077"
         d="M12 2c1.6 0 3.13.38 4.47 1.05L13.8 8.42a3.98 3.98 0 0 0-3.58 0L7.53 3.05A9.96 9.96 0 0 1 12 2zM2 12c0-1.6.38-3.13 1.05-4.47l5.37 2.68a3.98 3.98 0 0 0 0 3.58l-5.37 2.68A9.96 9.96 0 0 1 2 12zm8.21 3.58a3.98 3.98 0 0 0 3.58 0l2.68 5.37a9.96 9.96 0 0 1-8.94 0l2.68-5.37zm10.74-8.05a9.96 9.96 0 0 1 0 8.94l-5.37-2.68a3.98 3.98 0 0 0 0-3.58l5.37-2.68z"
         fill="var(--color-base)" />
    </g>
  </symbol>
  <symbol
     viewBox="0 0 24 24"
     id="calculator">
    <path
       id="path2082"
       d="M6 2h12a2 2 0 0 1 2 2v16a2 2 0 0 1-2 2H6a2 2 0 0 1-2-2V4c0-1.1.9-2 2-2zm2 3a1 1 0 1 0 0 2h8a1 1 0 0 0 0-2H8zm0 4a1 1 0 1 0 0 2 1 1 0 0 0 0-2zm4 0a1 1 0 1 0 0 2 1 1 0 0 0 0-2zm4 0a1 1 0 1 0 0 2 1 1 0 0 0 0-2zm-8 4a1 1 0 1 0 0 2 1 1 0 0 0 0-2zm4 0a1 1 0 1 0 0 2 1 1 0 0 0 0-2zm-4 4a1 1 0 1 0 0 2 1 1 0 0 0 0-2zm4 0a1 1 0 1 0 0 2 1 1 0 0 0 0-2z"
       fill="var(--color-base)" />
    <rect
       id="rect2084"
       rx="1"
       fill="var(--color-shape)"
       y="13"
       x="15"
       height="6"
       width="2" />
  </symbol>
  <symbol
     viewBox="0 0 24 24"
     id="calendar-add">
    <path
       id="path2087"
       d="M5 4h14a2 2 0 0 1 2 2v13a2 2 0 0 1-2 2H5a2 2 0 0 1-2-2V6c0-1.1.9-2 2-2zm0 5v10h14V9H5z"
       fill="var(--color-base)" />
    <path
       id="path2089"
       d="M13 13h2a1 1 0 0 1 0 2h-2v2a1 1 0 0 1-2 0v-2H9a1 1 0 0 1 0-2h2v-2a1 1 0 0 1 2 0v2zM7 2a1 1 0 0 1 1 1v3a1 1 0 1 1-2 0V3a1 1 0 0 1 1-1zm10 0a1 1 0 0 1 1 1v3a1 1 0 0 1-2 0V3a1 1 0 0 1 1-1z"
       fill="var(--color-shape)" />
  </symbol>
  <symbol
     viewBox="0 0 24 24"
     id="calendar-date">
    <path
       id="path2092"
       d="M5 4h14a2 2 0 0 1 2 2v13a2 2 0 0 1-2 2H5a2 2 0 0 1-2-2V6c0-1.1.9-2 2-2zm0 5v10h14V9H5z"
       fill="var(--color-base)" />
    <path
       id="path2094"
       d="M13 13h3v3h-3v-3zM7 2a1 1 0 0 1 1 1v3a1 1 0 1 1-2 0V3a1 1 0 0 1 1-1zm10 0a1 1 0 0 1 1 1v3a1 1 0 0 1-2 0V3a1 1 0 0 1 1-1z"
       fill="var(--color-shape)" />
  </symbol>
  <symbol
     viewBox="0 0 24 24"
     id="calendar-remove">
    <path
       id="path2097"
       d="M5 4h14a2 2 0 0 1 2 2v13a2 2 0 0 1-2 2H5a2 2 0 0 1-2-2V6c0-1.1.9-2 2-2zm0 5v10h14V9H5z"
       fill="var(--color-base)" />
    <path
       id="path2099"
       d="M7 2a1 1 0 0 1 1 1v3a1 1 0 1 1-2 0V3a1 1 0 0 1 1-1zm10 0a1 1 0 0 1 1 1v3a1 1 0 0 1-2 0V3a1 1 0 0 1 1-1zm-2 13H9a1 1 0 0 1 0-2h6a1 1 0 0 1 0 2z"
       fill="var(--color-shape)" />
  </symbol>
  <symbol
     viewBox="0 0 24 24"
     id="calendar">
    <path
       id="path2102"
       d="M5 4h14a2 2 0 0 1 2 2v13a2 2 0 0 1-2 2H5a2 2 0 0 1-2-2V6c0-1.1.9-2 2-2zm0 5v10h14V9H5z"
       fill="var(--color-base)" />
    <path
       id="path2104"
       d="M7 2a1 1 0 0 1 1 1v3a1 1 0 1 1-2 0V3a1 1 0 0 1 1-1zm10 0a1 1 0 0 1 1 1v3a1 1 0 0 1-2 0V3a1 1 0 0 1 1-1z"
       fill="var(--color-shape)" />
  </symbol>
  <symbol
     viewBox="0 0 24 24"
     id="camera">
    <path
       id="path2107"
       d="M6.59 6l2.7-2.7A1 1 0 0 1 10 3h4a1 1 0 0 1 .7.3L17.42 6H20a2 2 0 0 1 2 2v11a2 2 0 0 1-2 2H4a2 2 0 0 1-2-2V8c0-1.1.9-2 2-2h2.59zM19 10a1 1 0 1 0 0-2 1 1 0 0 0 0 2zm-7 8a5 5 0 1 0 0-10 5 5 0 0 0 0 10z"
       fill="var(--color-base)" />
    <path
       id="path2109"
       d="M12 16a3 3 0 1 0 0-6 3 3 0 0 0 0 6z"
       fill="var(--color-shape)" />
  </symbol>
  <symbol
     viewBox="0 0 24 24"
     id="certificate">
    <path
       id="path2112"
       d="M4 3h16a2 2 0 0 1 2 2v12a2 2 0 0 1-2 2H4a2 2 0 0 1-2-2V5c0-1.1.9-2 2-2zm16 12V7a2 2 0 0 1-2-2H6a2 2 0 0 1-2 2v8a2 2 0 0 1 2 2h12c0-1.1.9-2 2-2zM8 7h8a1 1 0 0 1 0 2H8a1 1 0 1 1 0-2z"
       fill="var(--color-base)" />
    <path
       id="path2114"
       d="M11.65 18.23a4 4 0 1 1 4.7 0l2.5 3.44-2.23-.18-1.48 1.68-.59-4.2a4.04 4.04 0 0 1-1.1 0l-.6 4.2-1.47-1.68-2.23.18 2.5-3.44zM14 17a2 2 0 1 0 0-4 2 2 0 0 0 0 4z"
       fill="var(--color-shape)" />
  </symbol>
  <symbol
     viewBox="0 0 24 24"
     id="chart">
    <path
       id="path2117"
       d="M5 3h14a2 2 0 0 1 2 2v14a2 2 0 0 1-2 2H5a2 2 0 0 1-2-2V5c0-1.1.9-2 2-2zm11 4a1 1 0 0 0-1 1v8a1 1 0 0 0 2 0V8a1 1 0 0 0-1-1z"
       fill="var(--color-base)" />
    <path
       id="path2119"
       d="M8 11a1 1 0 0 1 1 1v4a1 1 0 0 1-2 0v-4a1 1 0 0 1 1-1zm4-2a1 1 0 0 1 1 1v6a1 1 0 0 1-2 0v-6a1 1 0 0 1 1-1z"
       fill="var(--color-shape)" />
  </symbol>
  <symbol
     viewBox="0 0 24 24"
     id="chat-group-alt">
    <rect
       id="rect2122"
       rx="2"
       fill="var(--color-shape)"
       y="2"
       x="2"
       height="13"
       width="16" />
    <path
       id="path2124"
       d="M6 16V8c0-1.1.9-2 2-2h12a2 2 0 0 1 2 2v13a1 1 0 0 1-1.7.7L16.58 18H8a2 2 0 0 1-2-2z"
       fill="var(--color-base)" />
  </symbol>
  <symbol
     viewBox="0 0 24 24"
     id="chat-group">
    <path
       id="path2127"
       d="M20.3 12.04l1.01 3a1 1 0 0 1-1.26 1.27l-3.01-1a7 7 0 1 1 3.27-3.27zM11 10a1 1 0 1 0 0-2 1 1 0 0 0 0 2zm3 0a1 1 0 1 0 0-2 1 1 0 0 0 0 2zm3 0a1 1 0 1 0 0-2 1 1 0 0 0 0 2z"
       fill="var(--color-base)" />
    <path
       id="path2129"
       d="M15.88 17.8a7 7 0 0 1-8.92 2.5l-3 1.01a1 1 0 0 1-1.27-1.26l1-3.01A6.97 6.97 0 0 1 5 9.1a9 9 0 0 0 10.88 8.7z"
       fill="var(--color-shape)" />
  </symbol>
  <symbol
     viewBox="0 0 24 24"
     id="chat">
    <path
       id="path2132"
       d="M2 15V5c0-1.1.9-2 2-2h16a2 2 0 0 1 2 2v15a1 1 0 0 1-1.7.7L16.58 17H4a2 2 0 0 1-2-2z"
       fill="var(--color-base)" />
    <path
       id="path2134"
       d="M6 7h12a1 1 0 0 1 0 2H6a1 1 0 1 1 0-2zm0 4h8a1 1 0 0 1 0 2H6a1 1 0 0 1 0-2z"
       fill="var(--color-shape)" />
  </symbol>
  <symbol
     viewBox="0 0 24 24"
     id="check">
    <circle
       id="circle2137"
       fill="var(--color-base)"
       r="10"
       cy="12"
       cx="12" />
    <path
       id="path2139"
       d="M10 14.59l6.3-6.3a1 1 0 0 1 1.4 1.42l-7 7a1 1 0 0 1-1.4 0l-3-3a1 1 0 0 1 1.4-1.42l2.3 2.3z"
       fill="var(--color-shape)" />
  </symbol>
  <symbol
     viewBox="0 0 24 24"
     id="cheveron-down-circle">
    <circle
       id="circle2142"
       fill="var(--color-base)"
       r="10"
       cy="12"
       cx="12" />
    <path
       id="path2144"
       d="m 15.3,10.3 a 1,1 0 0 1 1.4,1.4 l -4,4 a 1,1 0 0 1 -1.4,0 l -4,-4 a 1,1 0 0 1 1.4,-1.4 l 3.3,3.29 3.3,-3.3 z"
       fill="var(--color-shape)" />
  </symbol>
  <symbol
     viewBox="0 0 24 24"
     id="cheveron-down">
    <path
       id="path2147"
       d="M15.3 10.3a1 1 0 0 1 1.4 1.4l-4 4a1 1 0 0 1-1.4 0l-4-4a1 1 0 0 1 1.4-1.4l3.3 3.29 3.3-3.3z"
       fill-rule="evenodd"
       fill="var(--color-shape)" />
  </symbol>
  <symbol
     viewBox="0 0 24 24"
     id="cheveron-left-circle">
    <circle
       id="circle2150"
       fill="var(--color-base)"
       r="10"
       cy="12"
       cx="12" />
    <path
       id="path2152"
       d="M13.7 15.3a1 1 0 0 1-1.4 1.4l-4-4a1 1 0 0 1 0-1.4l4-4a1 1 0 0 1 1.4 1.4L10.42 12l3.3 3.3z"
       fill="var(--color-shape)" />
  </symbol>
  <symbol
     viewBox="0 0 24 24"
     id="cheveron-right-circle">
    <circle
       id="circle2155"
       fill="var(--color-base)"
       r="10"
       cy="12"
       cx="12" />
    <path
       id="path2157"
       d="M10.3 8.7a1 1 0 0 1 1.4-1.4l4 4a1 1 0 0 1 0 1.4l-4 4a1 1 0 0 1-1.4-1.4l3.29-3.3-3.3-3.3z"
       fill="var(--color-shape)" />
  </symbol>
  <symbol
     viewBox="0 0 24 24"
     id="cheveron-selection">
    <path
       id="path2160"
       d="M8.7 9.7a1 1 0 1 1-1.4-1.4l4-4a1 1 0 0 1 1.4 0l4 4a1 1 0 1 1-1.4 1.4L12 6.42l-3.3 3.3zm6.6 4.6a1 1 0 0 1 1.4 1.4l-4 4a1 1 0 0 1-1.4 0l-4-4a1 1 0 0 1 1.4-1.4l3.3 3.29 3.3-3.3z"
       fill-rule="evenodd"
       fill="var(--color-shape)" />
  </symbol>
  <symbol
     viewBox="0 0 24 24"
     id="cheveron-up-circle">
    <circle
       id="circle2163"
       fill="var(--color-base)"
       r="10"
       cy="12"
       cx="12" />
    <path
       id="path2165"
       d="M8.7 13.7a1 1 0 1 1-1.4-1.4l4-4a1 1 0 0 1 1.4 0l4 4a1 1 0 0 1-1.4 1.4L12 10.42l-3.3 3.3z"
       fill="var(--color-shape)" />
  </symbol>
  <symbol
     viewBox="0 0 24 24"
     id="cheveron-up">
    <path
       id="path2168"
       d="M8.7 13.7a1 1 0 1 1-1.4-1.4l4-4a1 1 0 0 1 1.4 0l4 4a1 1 0 0 1-1.4 1.4L12 10.42l-3.3 3.3z"
       fill-rule="evenodd"
       fill="var(--color-shape)" />
  </symbol>
  <symbol
     viewBox="0 0 24 24"
     id="click-target">
    <path
       id="path2171"
       d="M21.97 12.73c-.25-.22-.56-.4-.92-.54L20 11.8a8 8 0 1 0-8.2 8.2l.4 1.06c.12.36.3.67.53.92a10 10 0 1 1 9.25-9.25zm-10.95 5.19a6 6 0 1 1 6.9-6.9l-2.39-.9a4 4 0 1 0-5.41 5.41l.9 2.39z"
       fill="var(--color-base)" />
    <path
       id="path2173"
       d="M17.96 16.54l3.75 3.75a1 1 0 0 1-1.42 1.42l-3.75-3.75-.57 2.28a1 1 0 0 1-1.9.11l-3-8a1 1 0 0 1 1.28-1.29l8 3a1 1 0 0 1-.1 1.91l-2.3.57z"
       fill="var(--color-shape)" />
  </symbol>
  <symbol
     viewBox="0 0 24 24"
     id="close-circle">
    <circle
       id="circle2176"
       fill="var(--color-base)"
       r="10"
       cy="12"
       cx="12" />
    <path
       id="path2178"
       d="M13.41 12l2.83 2.83a1 1 0 0 1-1.41 1.41L12 13.41l-2.83 2.83a1 1 0 1 1-1.41-1.41L10.59 12 7.76 9.17a1 1 0 0 1 1.41-1.41L12 10.59l2.83-2.83a1 1 0 0 1 1.41 1.41L13.41 12z"
       fill="var(--color-shape)" />
  </symbol>
  <symbol
     viewBox="0 0 24 24"
     id="close-square">
    <rect
       id="rect2181"
       rx="2"
       fill="var(--color-base)"
       y="3"
       x="3"
       height="18"
       width="18" />
    <path
       id="path2183"
       d="M13.41 12l2.83 2.83a1 1 0 0 1-1.41 1.41L12 13.41l-2.83 2.83a1 1 0 1 1-1.41-1.41L10.59 12 7.76 9.17a1 1 0 0 1 1.41-1.41L12 10.59l2.83-2.83a1 1 0 0 1 1.41 1.41L13.41 12z"
       fill="var(--color-shape)" />
  </symbol>
  <symbol
     viewBox="0 0 24 24"
     id="close">
    <path
       id="path2186"
       d="M15.78 14.36a1 1 0 0 1-1.42 1.42l-2.82-2.83-2.83 2.83a1 1 0 1 1-1.42-1.42l2.83-2.82L7.3 8.7a1 1 0 0 1 1.42-1.42l2.83 2.83 2.82-2.83a1 1 0 0 1 1.42 1.42l-2.83 2.83 2.83 2.82z"
       fill-rule="evenodd"
       fill="var(--color-shape)" />
  </symbol>
  <symbol
     viewBox="0 0 24 24"
     id="cloud-download">
    <path
       id="path2189"
       d="M15 15v-3a3 3 0 0 0-6 0v3H6a4 4 0 0 1-.99-7.88 5.5 5.5 0 0 1 10.86-.82A4.49 4.49 0 0 1 22 10.5a4.5 4.5 0 0 1-4.5 4.5H15z"
       fill="var(--color-base)" />
    <path
       id="path2191"
       d="M11 18.59V12a1 1 0 0 1 2 0v6.59l1.3-1.3a1 1 0 0 1 1.4 1.42l-3 3a1 1 0 0 1-1.4 0l-3-3a1 1 0 0 1 1.4-1.42l1.3 1.3z"
       fill="var(--color-shape)" />
  </symbol>
  <symbol
     viewBox="0 0 24 24"
     id="cloud-upload">
    <path
       id="path2194"
       d="M18 14.97c0-.76-.3-1.51-.88-2.1l-3-3a3 3 0 0 0-4.24 0l-3 3A3 3 0 0 0 6 15a4 4 0 0 1-.99-7.88 5.5 5.5 0 0 1 10.86-.82A4.49 4.49 0 0 1 22 10.5a4.5 4.5 0 0 1-4 4.47z"
       fill="var(--color-base)" />
    <path
       id="path2196"
       d="M11 14.41V21a1 1 0 0 0 2 0v-6.59l1.3 1.3a1 1 0 0 0 1.4-1.42l-3-3a1 1 0 0 0-1.4 0l-3 3a1 1 0 0 0 1.4 1.42l1.3-1.3z"
       fill="var(--color-shape)" />
  </symbol>
  <symbol
     viewBox="0 0 24 24"
     id="clouds">
    <path
       id="path2199"
       d="M16.85 6.06A3.52 3.52 0 0 1 21 9.5a3.5 3.5 0 0 1-6.96.5H14a3 3 0 1 1 2.85-3.94z"
       fill="var(--color-shape)" />
    <path
       id="path2201"
       d="M5.03 12.12A5.5 5.5 0 0 1 16 11.26 4.5 4.5 0 1 1 17.5 20H6a4 4 0 0 1-.97-7.88z"
       fill="var(--color-base)" />
  </symbol>
  <symbol
     viewBox="0 0 24 24"
     id="code">
    <rect
       id="rect2204"
       rx="2"
       fill="var(--color-base)"
       y="3"
       x="3"
       height="18"
       width="18" />
    <path
       id="path2206"
       d="M8.7 13.3a1 1 0 0 1-1.4 1.4l-2-2a1 1 0 0 1 0-1.4l2-2a1 1 0 1 1 1.4 1.4L7.42 12l1.3 1.3zm6.6 0l1.29-1.3-1.3-1.3a1 1 0 1 1 1.42-1.4l2 2a1 1 0 0 1 0 1.4l-2 2a1 1 0 0 1-1.42-1.4zm-3.32 3.9a1 1 0 0 1-1.96-.4l2-10a1 1 0 0 1 1.96.4l-2 10z"
       fill="var(--color-shape)" />
  </symbol>
  <symbol
     viewBox="0 0 24 24"
     id="cog">
    <path
       id="path2209"
       d="M6.8 3.45c.87-.52 1.82-.92 2.83-1.17a2.5 2.5 0 0 0 4.74 0c1.01.25 1.96.65 2.82 1.17a2.5 2.5 0 0 0 3.36 3.36c.52.86.92 1.8 1.17 2.82a2.5 2.5 0 0 0 0 4.74c-.25 1.01-.65 1.96-1.17 2.82a2.5 2.5 0 0 0-3.36 3.36c-.86.52-1.8.92-2.82 1.17a2.5 2.5 0 0 0-4.74 0c-1.01-.25-1.96-.65-2.82-1.17a2.5 2.5 0 0 0-3.36-3.36 9.94 9.94 0 0 1-1.17-2.82 2.5 2.5 0 0 0 0-4.74c.25-1.01.65-1.96 1.17-2.82a2.5 2.5 0 0 0 3.36-3.36zM12 16a4 4 0 1 0 0-8 4 4 0 0 0 0 8z"
       fill="var(--color-base)" />
    <circle
       id="circle2211"
       fill="var(--color-shape)"
       r="2"
       cy="12"
       cx="12" />
  </symbol>
  <symbol
     viewBox="0 0 24 24"
     id="collection">
    <rect
       id="rect2214"
       rx="2"
       fill="var(--color-base)"
       y="10"
       x="2"
       height="12"
       width="20" />
    <path
       id="path2216"
       d="M20 8H4c0-1.1.9-2 2-2h12a2 2 0 0 1 2 2zm-2-4H6c0-1.1.9-2 2-2h8a2 2 0 0 1 2 2z"
       fill="var(--color-shape)" />
  </symbol>
  <symbol
     viewBox="0 0 24 24"
     id="compass">
    <g
       id="g2223">
      <path
         id="path2219"
         d="M12 22a10 10 0 1 1 0-20 10 10 0 0 1 0 20zm0-8a2 2 0 1 0 0-4 2 2 0 0 0 0 4z"
         fill="var(--color-shape)" />
      <path
         id="path2221"
         d="M13.71 13.03a2 2 0 0 0-2.75-2.75l5.39-4.03c.92-.7 2.1.48 1.4 1.4l-4.04 5.38zm-.3.38zm-.38.3l-5.38 4.04c-.92.7-2.1-.48-1.4-1.4l4.04-5.38a2 2 0 0 0 2.75 2.75zM10.6 10.6z"
         fill="var(--color-base)" />
    </g>
  </symbol>
  <symbol
     viewBox="0 0 24 24"
     id="credit-card">
    <path
       id="path2226"
       d="M4 4h16a2 2 0 0 1 2 2v12a2 2 0 0 1-2 2H4a2 2 0 0 1-2-2V6c0-1.1.9-2 2-2zm13 12a1 1 0 0 0 0 2h2a1 1 0 0 0 0-2h-2zm-6 0a1 1 0 0 0 0 2h2a1 1 0 0 0 0-2h-2z"
       fill="var(--color-base)" />
    <rect
       id="rect2228"
       fill="var(--color-shape)"
       y="7"
       x="2"
       height="4"
       width="20" />
  </symbol>
  <symbol
     viewBox="0 0 24 24"
     id="currency-dollar">
    <circle
       id="circle2231"
       fill="var(--color-base)"
       r="10"
       cy="12"
       cx="12" />
    <path
       id="path2233"
       d="M13 7.12v3.96c2.25.36 4 1.93 4 3.92 0 2-1.75 3.56-4 3.92V19a1 1 0 0 1-2 0v-.08a4.82 4.82 0 0 1-3.67-2.49 1 1 0 0 1 1.8-.85c.29.6.98 1.09 1.87 1.3v-3.96C8.75 12.56 7 11 7 9c0-2 1.75-3.56 4-3.92V5a1 1 0 0 1 2 0v.08a4.81 4.81 0 0 1 3.68 2.5 1 1 0 0 1-1.81.85c-.28-.6-.98-1.1-1.87-1.31zm-2 3.76V7.12C9.81 7.4 9 8.18 9 9c0 .82.81 1.6 2 1.88zm2 2.24v3.76c1.19-.28 2-1.06 2-1.88 0-.82-.81-1.6-2-1.88z"
       fill="var(--color-shape)" />
  </symbol>
  <symbol
     viewBox="0 0 24 24"
     id="currency-euro">
    <circle
       id="circle2236"
       fill="var(--color-base)"
       r="10"
       cy="12"
       cx="12" />
    <path
       id="path2238"
       d="M7.1 11H13a1 1 0 0 1 0 2H7.1a5 5 0 0 0 8.44 2.54 1 1 0 0 1 1.41 1.41A7 7 0 0 1 5.07 13H5a1 1 0 0 1 0-2h.07a7 7 0 0 1 11.88-3.95 1 1 0 1 1-1.41 1.41A5 5 0 0 0 7.1 11z"
       fill="var(--color-shape)" />
  </symbol>
  <symbol
     viewBox="0 0 24 24"
     id="dashboard">
    <path
       id="path2241"
       d="M3 11h2a1 1 0 0 1 0 2H3v-2zm3.34-6.07l1.42 1.41a1 1 0 0 1-1.42 1.42L4.93 6.34l1.41-1.41zM13 3v2a1 1 0 0 1-2 0V3h2zm6.07 3.34l-1.41 1.42a1 1 0 1 1-1.42-1.42l1.42-1.41 1.41 1.41zM21 13h-2a1 1 0 0 1 0-2h2v2z"
       fill="var(--color-shape)" />
    <path
       id="path2243"
       d="M12 22a10 10 0 1 1 0-20 10 10 0 0 1 0 20zm-6.93-6h13.86a8 8 0 1 0-13.86 0z"
       fill="var(--color-base)" />
    <path
       id="path2245"
       d="M11 14.27V9a1 1 0 0 1 2 0v5.27a2 2 0 1 1-2 0z"
       fill="var(--color-shape)" />
  </symbol>
  <symbol
     viewBox="0 0 24 24"
     id="deliver">
    <path
       id="path2248"
       d="M20 18a3 3 0 0 0-6 0 1 1 0 0 1-1-1V9a1 1 0 0 1 1-1h5.33a1 1 0 0 1 .95.68l1.67 5c.03.1.05.21.05.32v3a1 1 0 0 1-1 1h-1zm-.39-5l-1-3H16v3h3.61zM7 20a2 2 0 1 1 0-4 2 2 0 0 1 0 4zm10 0a2 2 0 1 1 0-4 2 2 0 0 1 0 4z"
       fill="var(--color-shape)" />
    <path
       id="path2250"
       d="M10 18a3 3 0 0 0-6 0H3a1 1 0 0 1-1-1V6a1 1 0 0 1 1-1h10a1 1 0 0 1 1 1v12h-4z"
       fill="var(--color-base)" />
  </symbol>
  <symbol
     viewBox="0 0 24 24"
     id="desktop">
    <path
       id="path2253"
       d="M4 2h16a2 2 0 0 1 2 2v12a2 2 0 0 1-2 2H4a2 2 0 0 1-2-2V4c0-1.1.9-2 2-2zm0 2v10h16V4H4zm4 16a1 1 0 0 1 1-1h6a1 1 0 0 1 1 1v.59l.7.7A1 1 0 0 1 16 23H8a1 1 0 0 1-.7-1.7l.7-.71V20z"
       fill="var(--color-base)" />
    <path
       id="path2255"
       d="M2 14h20v2a2 2 0 0 1-2 2H4a2 2 0 0 1-2-2v-2z"
       fill="var(--color-shape)" />
  </symbol>
  <symbol
     viewBox="0 0 24 24"
     id="device-smartphone">
    <path
       id="path2258"
       d="M8 2h8a2 2 0 0 1 2 2v16a2 2 0 0 1-2 2H8a2 2 0 0 1-2-2V4c0-1.1.9-2 2-2z"
       fill="var(--color-base)" />
    <path
       id="path2260"
       d="M12 20a1.5 1.5 0 1 0 0-3 1.5 1.5 0 0 0 0 3z"
       fill="var(--color-shape)" />
  </symbol>
  <symbol
     viewBox="0 0 24 24"
     id="device-tablet">
    <path
       id="path2263"
       d="M6 2h12a2 2 0 0 1 2 2v16a2 2 0 0 1-2 2H6a2 2 0 0 1-2-2V4c0-1.1.9-2 2-2z"
       fill="var(--color-base)" />
    <path
       id="path2265"
       d="M12 20a1.5 1.5 0 1 0 0-3 1.5 1.5 0 0 0 0 3z"
       fill="var(--color-shape)" />
  </symbol>
  <symbol
     viewBox="0 0 24 24"
     id="discount">
    <path
       id="path2268"
       d="M10.75 21.19l-.85.28c-1.21.4-2.53-.15-3.1-1.29l-.4-.8a4 4 0 0 0-1.78-1.77l-.8-.4a2.57 2.57 0 0 1-1.29-3.1l.28-.86a4 4 0 0 0 0-2.5l-.28-.85c-.4-1.21.15-2.53 1.29-3.1l.8-.4a4 4 0 0 0 1.77-1.78l.4-.8a2.57 2.57 0 0 1 3.1-1.29l.86.28a4 4 0 0 0 2.5 0l.85-.28c1.21-.4 2.53.15 3.1 1.29l.4.8a4 4 0 0 0 1.78 1.77l.8.4a2.57 2.57 0 0 1 1.29 3.1l-.28.86a4 4 0 0 0 0 2.5l.28.85c.4 1.21-.15 2.53-1.29 3.1l-.8.4a4 4 0 0 0-1.77 1.78l-.4.8a2.57 2.57 0 0 1-3.1 1.29l-.86-.28a4 4 0 0 0-2.5 0z"
       fill="var(--color-base)" />
    <path
       id="path2270"
       d="M8.7 16.7a1 1 0 1 1-1.4-1.4l8-8a1 1 0 0 1 1.4 1.4l-8 8zm6.8.3a1.5 1.5 0 1 1 0-3 1.5 1.5 0 0 1 0 3zm-7-7a1.5 1.5 0 1 1 0-3 1.5 1.5 0 0 1 0 3z"
       fill="var(--color-shape)" />
  </symbol>
  <symbol
     viewBox="0 0 24 24"
     id="document-add">
    <path
       id="path2273"
       d="M6 2h6v6c0 1.1.9 2 2 2h6v10a2 2 0 0 1-2 2H6a2 2 0 0 1-2-2V4c0-1.1.9-2 2-2z"
       fill="var(--color-base)" />
    <path
       id="path2275"
       d="M13 15h2a1 1 0 0 1 0 2h-2v2a1 1 0 0 1-2 0v-2H9a1 1 0 0 1 0-2h2v-2a1 1 0 0 1 2 0v2z"
       fill="var(--color-shape)" />
    <polygon
       id="polygon2277"
       points="14 2 20 8 14 8"
       fill="var(--color-shape)" />
  </symbol>
  <symbol
     viewBox="0 0 24 24"
     id="document-notes">
    <path
       id="path2280"
       d="M6 2h6v6c0 1.1.9 2 2 2h6v10a2 2 0 0 1-2 2H6a2 2 0 0 1-2-2V4c0-1.1.9-2 2-2zm2 11a1 1 0 0 0 0 2h8a1 1 0 0 0 0-2H8zm0 4a1 1 0 0 0 0 2h4a1 1 0 0 0 0-2H8z"
       fill="var(--color-base)" />
    <polygon
       id="polygon2282"
       points="14 2 20 8 14 8"
       fill="var(--color-shape)" />
  </symbol>
  <symbol
     viewBox="0 0 24 24"
     id="document-remove">
    <path
       id="path2285"
       d="M6 2h6v6c0 1.1.9 2 2 2h6v10a2 2 0 0 1-2 2H6a2 2 0 0 1-2-2V4c0-1.1.9-2 2-2z"
       fill="var(--color-base)" />
    <rect
       id="rect2287"
       rx="1"
       fill="var(--color-shape)"
       y="15"
       x="8"
       height="2"
       width="8" />
    <polygon
       id="polygon2289"
       points="14 2 20 8 14 8"
       fill="var(--color-shape)" />
  </symbol>
  <symbol
     viewBox="0 0 24 24"
     id="document">
    <path
       id="path2292"
       d="M6 2h6v6c0 1.1.9 2 2 2h6v10a2 2 0 0 1-2 2H6a2 2 0 0 1-2-2V4c0-1.1.9-2 2-2z"
       fill="var(--color-base)" />
    <polygon
       id="polygon2294"
       points="14 2 20 8 14 8"
       fill="var(--color-shape)" />
  </symbol>
  <symbol
     viewBox="0 0 24 24"
     id="door-enter">
    <path
       id="path2297"
       d="M13 4V3a1 1 0 0 1 1.27-.96l6.98 2A1 1 0 0 1 22 5v14a1 1 0 0 1-.75.97l-6.98 2A1 1 0 0 1 13 21v-1h-3a1 1 0 0 1-1-1v-2a1 1 0 0 1 2 0v1h2V6h-2v1a1 1 0 0 1-2 0V5a1 1 0 0 1 1-1h3z"
       fill="var(--color-base)" />
    <path
       id="path2299"
       d="M7.59 11l-1.3-1.3c-.94-.94.47-2.35 1.42-1.4l3 3a1 1 0 0 1 0 1.4l-3 3c-.95.95-2.36-.46-1.42-1.4L7.6 13H3a1 1 0 0 1 0-2h4.59z"
       fill="var(--color-shape)" />
  </symbol>
  <symbol
     viewBox="0 0 24 24"
     id="door-exit">
    <path
       id="path2302"
       d="M11 4h3a1 1 0 0 1 1 1v3a1 1 0 0 1-2 0V6h-2v12h2v-2a1 1 0 0 1 2 0v3a1 1 0 0 1-1 1h-3v1a1 1 0 0 1-1.27.96l-6.98-2A1 1 0 0 1 2 19V5a1 1 0 0 1 .75-.97l6.98-2A1 1 0 0 1 11 3v1z"
       fill="var(--color-base)" />
    <path
       id="path2304"
       d="M18.59 11l-1.3-1.3c-.94-.94.47-2.35 1.42-1.4l3 3a1 1 0 0 1 0 1.4l-3 3c-.95.95-2.36-.46-1.42-1.4l1.3-1.3H14a1 1 0 0 1 0-2h4.59z"
       fill="var(--color-shape)" />
  </symbol>
  <symbol
     viewBox="0 0 24 24"
     id="dots-horizontal">
    <path
       id="path2307"
       d="M5 14a2 2 0 1 1 0-4 2 2 0 0 1 0 4zm7 0a2 2 0 1 1 0-4 2 2 0 0 1 0 4zm7 0a2 2 0 1 1 0-4 2 2 0 0 1 0 4z"
       fill-rule="evenodd"
       fill="var(--color-shape)" />
  </symbol>
  <symbol
     viewBox="0 0 24 24"
     id="dots-vertical">
    <path
       id="path2310"
       d="M12 7a2 2 0 1 1 0-4 2 2 0 0 1 0 4zm0 7a2 2 0 1 1 0-4 2 2 0 0 1 0 4zm0 7a2 2 0 1 1 0-4 2 2 0 0 1 0 4z"
       fill-rule="evenodd"
       fill="var(--color-shape)" />
  </symbol>
  <symbol
     viewBox="0 0 24 24"
     id="dupicate">
    <rect
       id="rect2313"
       rx="2"
       fill="var(--color-shape)"
       y="3"
       x="3"
       height="14"
       width="14" />
    <rect
       id="rect2315"
       rx="2"
       fill="var(--color-base)"
       y="7"
       x="7"
       height="14"
       width="14" />
  </symbol>
  <symbol
     viewBox="0 0 24 24"
     id="edit">
    <path
       id="path2318"
       d="M4 14a1 1 0 0 1 .3-.7l11-11a1 1 0 0 1 1.4 0l3 3a1 1 0 0 1 0 1.4l-11 11a1 1 0 0 1-.7.3H5a1 1 0 0 1-1-1v-3z"
       fill="var(--color-base)" />
    <rect
       id="rect2320"
       rx="1"
       fill="var(--color-shape)"
       y="20"
       x="2"
       height="2"
       width="20" />
  </symbol>
  <symbol
     viewBox="0 0 24 24"
     id="external-window">
    <path
       id="path2323"
       d="M12 8a1 1 0 0 1-1 1H5v10h10v-6a1 1 0 0 1 2 0v6a2 2 0 0 1-2 2H5a2 2 0 0 1-2-2V9c0-1.1.9-2 2-2h6a1 1 0 0 1 1 1z"
       fill="var(--color-base)" />
    <path
       id="path2325"
       d="M19 6.41L8.7 16.71a1 1 0 1 1-1.4-1.42L17.58 5H14a1 1 0 0 1 0-2h6a1 1 0 0 1 1 1v6a1 1 0 0 1-2 0V6.41z"
       fill="var(--color-shape)" />
  </symbol>
  <symbol
     viewBox="0 0 24 24"
     id="factory">
    <path
       id="path2328"
       d="M21 21H3a1 1 0 0 1-1-1.06l1-16A1 1 0 0 1 4 3h2a1 1 0 0 1 1 .94l.39 6.26 2.9-2.9A1 1 0 0 1 12 8v2.59l3.3-3.3A1 1 0 0 1 17 8v2.59l3.3-3.3A1 1 0 0 1 22 8v12a1 1 0 0 1-1 1z"
       fill="var(--color-base)" />
    <path
       id="path2330"
       d="M7 13h3v2H7v-2zm5 0h3v2h-3v-2zm5 0h3v2h-3v-2zM7 17h3v2H7v-2zm5 0h3v2h-3v-2zm5 0h3v2h-3v-2z"
       fill="var(--color-shape)" />
  </symbol>
  <symbol
     viewBox="0 0 24 24"
     id="fast-forward">
    <path
       id="path2333"
       d="M1 5a1 1 0 0 1 1.5-.86l12 7a1 1 0 0 1 0 1.72l-12 7A1 1 0 0 1 1 19V5z"
       fill="var(--color-shape)" />
    <path
       id="path2335"
       d="M9 5a1 1 0 0 1 1.5-.86l12 7a1 1 0 0 1 0 1.72l-12 7A1 1 0 0 1 9 19V5z"
       fill="var(--color-base)" />
  </symbol>
  <symbol
     viewBox="0 0 24 24"
     id="fast-rewind">
    <path
       id="path2338"
       d="M22 5a1 1 0 0 0-1.5-.86l-12 7a1 1 0 0 0 0 1.72l12 7A1 1 0 0 0 22 19V5z"
       fill="var(--color-shape)" />
    <path
       id="path2340"
       d="M15 5a1 1 0 0 0-1.5-.86l-12 7a1 1 0 0 0 0 1.72l12 7A1 1 0 0 0 15 19V5z"
       fill="var(--color-base)" />
  </symbol>
  <symbol
     viewBox="0 0 24 24"
     id="film">
    <path
       id="path2343"
       d="M4 3h16a2 2 0 0 1 2 2v14a2 2 0 0 1-2 2H4a2 2 0 0 1-2-2V5c0-1.1.9-2 2-2zm0 2v2h2V5H4zm0 4v2h2V9H4zm0 4v2h2v-2H4zm0 4v2h2v-2H4zM18 5v2h2V5h-2zm0 4v2h2V9h-2zm0 4v2h2v-2h-2zm0 4v2h2v-2h-2z"
       fill="var(--color-base)" />
    <path
       id="path2345"
       d="M9 5h6a1 1 0 0 1 1 1v4a1 1 0 0 1-1 1H9a1 1 0 0 1-1-1V6a1 1 0 0 1 1-1zm0 8h6a1 1 0 0 1 1 1v4a1 1 0 0 1-1 1H9a1 1 0 0 1-1-1v-4a1 1 0 0 1 1-1z"
       fill="var(--color-shape)" />
  </symbol>
  <symbol
     viewBox="0 0 24 24"
     id="flag">
    <g
       id="g2352">
      <path
         id="path2348"
         d="M4 15a1 1 0 0 1-1-1V4a1 1 0 0 1 1-1h7a1 1 0 0 1 .7.3L13.42 5H21a1 1 0 0 1 .9 1.45L19.61 11l2.27 4.55A1 1 0 0 1 21 17h-8a1 1 0 0 1-.7-.3L10.58 15H4z"
         fill="var(--color-shape)" />
      <rect
         id="rect2350"
         rx="1"
         fill="var(--color-base)"
         y="2"
         x="2"
         height="20"
         width="2" />
    </g>
  </symbol>
  <symbol
     viewBox="0 0 24 24"
     id="folder-add">
    <g
       id="g2361">
      <path
         id="path2355"
         d="M22 10H2V6c0-1.1.9-2 2-2h7l2 2h7a2 2 0 0 1 2 2v2z"
         fill="var(--color-base)" />
      <rect
         id="rect2357"
         rx="2"
         fill="var(--color-shape)"
         y="8"
         x="2"
         height="12"
         width="20" />
      <path
         id="path2359"
         d="M13 13h2a1 1 0 0 1 0 2h-2v2a1 1 0 0 1-2 0v-2H9a1 1 0 0 1 0-2h2v-2a1 1 0 0 1 2 0v2z"
         fill="var(--color-base)" />
    </g>
  </symbol>
  <symbol
     viewBox="0 0 24 24"
     id="folder-remove">
    <g
       id="g2370">
      <path
         id="path2364"
         d="M22 10H2V6c0-1.1.9-2 2-2h7l2 2h7a2 2 0 0 1 2 2v2z"
         fill="var(--color-base)" />
      <rect
         id="rect2366"
         rx="2"
         fill="var(--color-shape)"
         y="8"
         x="2"
         height="12"
         width="20" />
      <path
         id="path2368"
         d="M9 13h6a1 1 0 0 1 0 2H9a1 1 0 0 1 0-2z"
         fill="var(--color-base)" />
    </g>
  </symbol>
  <symbol
     viewBox="0 0 24 24"
     id="folder">
    <g
       id="g2377">
      <path
         id="path2373"
         d="M22 10H2V6c0-1.1.9-2 2-2h7l2 2h7a2 2 0 0 1 2 2v2z"
         fill="var(--color-base)" />
      <rect
         id="rect2375"
         rx="2"
         fill="var(--color-shape)"
         y="8"
         x="2"
         height="12"
         width="20" />
    </g>
  </symbol>
  <symbol
     viewBox="0 0 24 24"
     id="globe">
    <circle
       id="circle2380"
       fill="var(--color-base)"
       r="10"
       cy="12"
       cx="12" />
    <path
       id="path2382"
       d="M2.05 11A10 10 0 0 1 15 2.46V6a2 2 0 0 1-2 2h-1v1a2 2 0 0 1-1 1.73V12h2a2 2 0 0 1 2 2v1h2a2 2 0 0 1 2 2v2.14A9.97 9.97 0 0 1 12 22v-4h-1a2 2 0 0 1-2-2v-2a2 2 0 0 1-2-2v-1H2.05z"
       fill="var(--color-shape)" />
  </symbol>
  <symbol
     viewBox="0 0 24 24"
     id="hard-drive">
    <path
       id="path2385"
       d="M6 2h12a2 2 0 0 1 2 2v16a2 2 0 0 1-2 2H6a2 2 0 0 1-2-2V4c0-1.1.9-2 2-2zm8.12 7.47A5 5 0 1 0 17 14V9a1 1 0 0 0-1.7-.7l-1.18 1.17z"
       fill="var(--color-base)" />
    <path
       id="path2387"
       d="M12 16a2 2 0 1 1 0-4 2 2 0 0 1 0 4zm6-11a1 1 0 1 1 0-2 1 1 0 0 1 0 2zM6 5a1 1 0 1 1 0-2 1 1 0 0 1 0 2zm12 16a1 1 0 1 1 0-2 1 1 0 0 1 0 2zM6 21a1 1 0 1 1 0-2 1 1 0 0 1 0 2zM8 6h4a1 1 0 0 1 0 2H8a1 1 0 1 1 0-2z"
       fill="var(--color-shape)" />
  </symbol>
  <symbol
     viewBox="0 0 24 24"
     id="headphones">
    <path
       id="path2390"
       d="M22 17a1 1 0 0 1-2 0v-5a8 8 0 1 0-16 0v5a1 1 0 0 1-2 0v-5a10 10 0 1 1 20 0v5z"
       fill="var(--color-base)" />
    <path
       id="path2392"
       d="M7 12a2 2 0 0 1 2 2v6a2 2 0 1 1-4 0v-6c0-1.1.9-2 2-2zm10 0a2 2 0 0 1 2 2v6a2 2 0 1 1-4 0v-6c0-1.1.9-2 2-2z"
       fill="var(--color-shape)" />
  </symbol>
  <symbol
     viewBox="0 0 24 24"
     id="heart">
    <circle
       id="circle2395"
       fill="var(--color-base)"
       r="10"
       cy="12"
       cx="12" />
    <path
       id="path2397"
       d="M12.88 8.88a3 3 0 1 1 4.24 4.24l-4.41 4.42a1 1 0 0 1-1.42 0l-4.41-4.42a3 3 0 1 1 4.24-4.24l.88.88.88-.88z"
       fill="var(--color-shape)" />
  </symbol>
  <symbol
     viewBox="0 0 24 24"
     id="help">
    <path
       id="path2400"
       d="M12 22a10 10 0 1 1 0-20 10 10 0 0 1 0 20z"
       fill="var(--color-base)" />
    <path
       id="path2402"
       d="M12 19.5a1.5 1.5 0 1 1 0-3 1.5 1.5 0 0 1 0 3zm1-5.5a1 1 0 0 1-2 0v-1.41a1 1 0 0 1 .55-.9L14 10.5C14.64 10.08 15 9.53 15 9c0-1.03-1.3-2-3-2-1.35 0-2.49.62-2.87 1.43a1 1 0 0 1-1.8-.86C8.05 6.01 9.92 5 12 5c2.7 0 5 1.72 5 4 0 1.3-.76 2.46-2.05 3.24L13 13.2V14z"
       fill="var(--color-shape)" />
  </symbol>
  <symbol
     viewBox="0 0 24 24"
     id="history">
    <path
       id="path2405"
       d="M6.55 6.14l1.16 1.15A1 1 0 0 1 7 9H3a1 1 0 0 1-1-1V4a1 1 0 0 1 1.7-.7l1.44 1.42A10 10 0 1 1 2 12a1 1 0 0 1 2 0 8 8 0 1 0 2.55-5.86z"
       fill="var(--color-base)" />
    <path
       id="path2407"
       d="M15.7 14.3a1 1 0 0 1-1.4 1.4l-3-3a1 1 0 0 1-.3-.7V7a1 1 0 0 1 2 0v4.59l2.7 2.7z"
       fill="var(--color-shape)" />
  </symbol>
  <symbol
     viewBox="0 0 24 24"
     id="home">
    <path
       id="path2410"
       d="M9 22H5a1 1 0 0 1-1-1V11l8-8 8 8v10a1 1 0 0 1-1 1h-4a1 1 0 0 1-1-1v-4a1 1 0 0 0-1-1h-2a1 1 0 0 0-1 1v4a1 1 0 0 1-1 1zm3-9a2 2 0 1 0 0-4 2 2 0 0 0 0 4z"
       fill="var(--color-base)" />
    <path
       id="path2412"
       d="M12.01 4.42l-8.3 8.3a1 1 0 1 1-1.42-1.41l9.02-9.02a1 1 0 0 1 1.41 0l8.99 9.02a1 1 0 0 1-1.42 1.41l-8.28-8.3z"
       fill="var(--color-shape)" />
  </symbol>
  <symbol
     viewBox="0 0 24 24"
     id="hour-glass">
    <path
       id="path2415"
       d="M19 20h1a1 1 0 0 1 0 2H4a1 1 0 0 1 0-2h1c0-1.8.68-3.58 2.05-4.95L9 13.1v-2.2L7.05 8.95A6.98 6.98 0 0 1 5 4H4a1 1 0 1 1 0-2h16a1 1 0 0 1 0 2h-1c0 1.8-.68 3.58-2.05 4.95L15 10.9v2.2l1.95 1.95A6.98 6.98 0 0 1 19 20z"
       fill="var(--color-base)" />
    <path
       id="path2417"
       d="M17 20H7l2.83-2.83A4 4 0 0 0 11 14.34v-4.27L8.46 7.54a5 5 0 0 1-.95-1.33c.17-.06.33-.13.49-.21a4.47 4.47 0 0 1 4 0c1.26.63 2.74.63 4 0 .23-.11.46-.2.7-.28a5 5 0 0 1-1.16 1.82L13 10.07v4.27a4 4 0 0 0 1.17 2.83L17 20z"
       fill="var(--color-shape)" />
  </symbol>
  <symbol
     viewBox="0 0 24 24"
     id="identification">
    <path
       id="path2420"
       d="M4 4h16a2 2 0 0 1 2 2v12a2 2 0 0 1-2 2H4a2 2 0 0 1-2-2V6c0-1.1.9-2 2-2zm13 3a1 1 0 0 0 0 2h2a1 1 0 0 0 0-2h-2zm-2 4a1 1 0 0 0 0 2h4a1 1 0 0 0 0-2h-4zm1 4a1 1 0 0 0 0 2h3a1 1 0 0 0 0-2h-3z"
       fill="var(--color-base)" />
    <path
       id="path2422"
       d="M8 12a3 3 0 1 1 0-6 3 3 0 0 1 0 6zm-2 2h4a2 2 0 0 1 2 2v1a1 1 0 0 1-1 1H5a1 1 0 0 1-1-1v-1c0-1.1.9-2 2-2z"
       fill="var(--color-shape)" />
  </symbol>
  <symbol
     viewBox="0 0 24 24"
     id="important">
    <path
       id="path2425"
       d="M12 2a10 10 0 1 1 0 20 10 10 0 0 1 0-20z"
       fill="var(--color-base)" />
    <path
       id="path2427"
       d="M12 18a1.5 1.5 0 1 1 0-3 1.5 1.5 0 0 1 0 3zm1-5.9c-.13 1.2-1.88 1.2-2 0l-.5-5a1 1 0 0 1 1-1.1h1a1 1 0 0 1 1 1.1l-.5 5z"
       fill="var(--color-shape)" />
  </symbol>
  <symbol
     viewBox="0 0 24 24"
     id="inbox-check">
    <path
       id="path2430"
       d="M5 3h14a2 2 0 0 1 2 2v14a2 2 0 0 1-2 2H5a2 2 0 0 1-2-2V5c0-1.1.9-2 2-2zm0 2v10h2a2 2 0 0 1 2 2c0 1.1.9 2 2 2h2a2 2 0 0 0 2-2c0-1.1.9-2 2-2h2V5H5z"
       fill="var(--color-base)" />
    <path
       id="path2432"
       d="M11 11.59l3.3-3.3a1 1 0 0 1 1.4 1.42l-4 4a1 1 0 0 1-1.4 0l-2-2a1 1 0 0 1 1.4-1.42l1.3 1.3z"
       fill="var(--color-shape)" />
  </symbol>
  <symbol
     viewBox="0 0 24 24"
     id="inbox-download">
    <path
       id="path2435"
       d="M8 5H5v10h2a2 2 0 0 1 2 2c0 1.1.9 2 2 2h2a2 2 0 0 0 2-2c0-1.1.9-2 2-2h2V5h-3a1 1 0 0 1 0-2h3a2 2 0 0 1 2 2v14a2 2 0 0 1-2 2H5a2 2 0 0 1-2-2V5c0-1.1.9-2 2-2h3a1 1 0 1 1 0 2z"
       fill="var(--color-base)" />
    <path
       id="path2437"
       d="M11 10.59V4a1 1 0 0 1 2 0v6.59l1.3-1.3a1 1 0 0 1 1.4 1.42l-3 3a1 1 0 0 1-1.4 0l-3-3a1 1 0 0 1 1.4-1.42l1.3 1.3z"
       fill="var(--color-shape)" />
  </symbol>
  <symbol
     viewBox="0 0 24 24"
     id="inbox-full">
    <path
       id="path2440"
       d="M5 3h14a2 2 0 0 1 2 2v14a2 2 0 0 1-2 2H5a2 2 0 0 1-2-2V5c0-1.1.9-2 2-2zm0 2v10h2a2 2 0 0 1 2 2c0 1.1.9 2 2 2h2a2 2 0 0 0 2-2c0-1.1.9-2 2-2h2V5H5z"
       fill="var(--color-base)" />
    <path
       id="path2442"
       d="M8 7h8a1 1 0 0 1 0 2H8a1 1 0 1 1 0-2zm0 4h8a1 1 0 0 1 0 2H8a1 1 0 0 1 0-2z"
       fill="var(--color-shape)" />
  </symbol>
  <symbol
     viewBox="0 0 24 24"
     id="inbox-upload">
    <path
       id="path2445"
       d="M8 4a1 1 0 0 1-1 1H5v10h2a2 2 0 0 1 2 2c0 1.1.9 2 2 2h2a2 2 0 0 0 2-2c0-1.1.9-2 2-2h2V5h-2a1 1 0 0 1 0-2h2a2 2 0 0 1 2 2v14a2 2 0 0 1-2 2H5a2 2 0 0 1-2-2V5c0-1.1.9-2 2-2h2a1 1 0 0 1 1 1z"
       fill="var(--color-base)" />
    <path
       id="path2447"
       d="M11 6.41V13a1 1 0 0 0 2 0V6.41l1.3 1.3a1 1 0 0 0 1.4-1.42l-3-3a1 1 0 0 0-1.4 0l-3 3a1 1 0 0 0 1.4 1.42L11 6.4z"
       fill="var(--color-shape)" />
  </symbol>
  <symbol
     viewBox="0 0 24 24"
     id="information">
    <path
       id="path2450"
       d="M12 2a10 10 0 1 1 0 20 10 10 0 0 1 0-20z"
       fill="var(--color-base)" />
    <path
       id="path2452"
       d="M11 12a1 1 0 0 1 0-2h2a1 1 0 0 1 .96 1.27L12.33 17H13a1 1 0 0 1 0 2h-2a1 1 0 0 1-.96-1.27L11.67 12H11zm2-4a1.5 1.5 0 1 1 0-3 1.5 1.5 0 0 1 0 3z"
       fill="var(--color-shape)" />
  </symbol>
  <symbol
     viewBox="0 0 24 24"
     id="interface">
    <path
       id="path2455"
       d="M4 2h16a2 2 0 0 1 2 2v13a2 2 0 0 1-2 2H4a2 2 0 0 1-2-2V4c0-1.1.9-2 2-2zm0 4v11h16V6H4z"
       fill="var(--color-base)" />
    <path
       id="path2457"
       d="M17.96 16.54l3.75 3.75a1 1 0 0 1-1.42 1.42l-3.75-3.75-.57 2.28a1 1 0 0 1-1.9.11l-3-8a1 1 0 0 1 1.28-1.29l8 3a1 1 0 0 1-.1 1.91l-2.3.57z"
       fill="var(--color-shape)" />
  </symbol>
  <symbol
     viewBox="0 0 24 24"
     id="key">
    <path
       id="path2460"
       d="M8.23 10.77a7.01 7.01 0 1 1 5 5L11 18H9v2H7v2.03H2V17l6.23-6.23zM17 9a2 2 0 1 0 0-4 2 2 0 0 0 0 4z"
       fill="var(--color-base)" />
    <path
       id="path2462"
       d="M6.2 18.7a1 1 0 1 1-1.4-1.4l4-4a1 1 0 1 1 1.4 1.4l-4 4z"
       fill="var(--color-shape)" />
  </symbol>
  <symbol
     viewBox="0 0 24 24"
     id="launch">
    <g
       id="g2469">
      <path
         id="path2465"
         d="M14.57 6.96a2 2 0 0 1 2.47 2.47c.29.17.5.47.5.86v7.07a1 1 0 0 1-.3.71L13 22.31a1 1 0 0 1-1.7-.7v-3.58l-.49.19a1 1 0 0 1-1.17-.37 14.1 14.1 0 0 0-3.5-3.5 1 1 0 0 1-.36-1.16l.19-.48H2.39A1 1 0 0 1 1.7 11l4.24-4.24a1 1 0 0 1 .7-.3h7.08c.39 0 .7.21.86.5zM13.19 9.4l-2.15 2.15a3 3 0 0 1 .84.57 3 3 0 0 1 .57.84l2.15-2.15A2 2 0 0 1 13.2 9.4zm6.98-6.61a1 1 0 0 1 1.04 1.04c-.03.86-.13 1.71-.3 2.55-.47-.6-1.99-.19-2.55-.74-.55-.56-.14-2.08-.74-2.55.84-.17 1.7-.27 2.55-.3z"
         fill="var(--color-base)" />
      <path
         id="path2467"
         d="M7.23 10.26A16.05 16.05 0 0 1 17.62 3.1a19.2 19.2 0 0 1 3.29 3.29 15.94 15.94 0 0 1-7.17 10.4 19.05 19.05 0 0 0-6.51-6.52zm-.86 5.5a16.2 16.2 0 0 1 1.87 1.87 1 1 0 0 1-.47 1.6c-.79.25-1.6.42-2.4.54a1 1 0 0 1-1.14-1.13c.12-.82.3-1.62.53-2.41a1 1 0 0 1 1.6-.47zm7.34-5.47a2 2 0 1 0 2.83-2.83 2 2 0 0 0-2.83 2.83z"
         fill="var(--color-shape)" />
    </g>
  </symbol>
  <symbol
     viewBox="0 0 24 24"
     id="layers">
    <path
       id="path2472"
       d="M2.6 6.09l9-4a1 1 0 0 1 .8 0l9 4a1 1 0 0 1 0 1.82l-9 4a1 1 0 0 1-.8 0l-9-4a1 1 0 0 1 0-1.82z"
       fill="var(--color-base)" />
    <path
       id="path2474"
       d="M3.91 10.5l7.68 3.41a1 1 0 0 0 .82 0l7.68-3.41 1.32.59a1 1 0 0 1 0 1.82l-9 4a1 1 0 0 1-.82 0l-9-4a1 1 0 0 1 0-1.82l1.32-.59zm0 5l7.68 3.41a1 1 0 0 0 .82 0l7.68-3.41 1.32.59a1 1 0 0 1 0 1.82l-9 4a1 1 0 0 1-.82 0l-9-4a1 1 0 0 1 0-1.82l1.32-.59z"
       fill="var(--color-shape)" />
  </symbol>
  <symbol
     viewBox="0 0 24 24"
     id="library">
    <path
       id="path2477"
       d="M3 8h18v1a1 1 0 0 1-1 1H4a1 1 0 0 1-1-1V8zm6 3l-1 1v4l1 1H4l1-1v-4l-1-1h5zm5.5 0l-1 1v4l1 1h-5l1-1v-4l-1-1h5zm5.5 0l-1 1v4l1 1h-5l1-1v-4l-1-1h5zM3 20h18a1 1 0 0 1 0 2H3a1 1 0 0 1 0-2z"
       fill="var(--color-base)" />
    <path
       id="path2479"
       d="M4 18h16a1 1 0 0 1 1 1v1H3v-1a1 1 0 0 1 1-1zm8.4-15.91l9 4c1 .43.68 1.91-.4 1.91H3c-1.08 0-1.4-1.48-.4-1.91l9-4a1 1 0 0 1 .8 0z"
       fill="var(--color-shape)" />
  </symbol>
  <symbol
     viewBox="0 0 24 24"
     id="light">
    <path
       id="path2482"
       d="M5 8a7 7 0 1 1 10.62 6l-.64 3.2a1 1 0 0 1-.98.8h-4a1 1 0 0 1-.98-.8L8.38 14A7 7 0 0 1 5 8zm12 0a5 5 0 0 0-5-5 1 1 0 0 0 0 2 3 3 0 0 1 3 3 1 1 0 0 0 2 0z"
       fill="var(--color-base)" />
    <path
       id="path2484"
       d="M15 21a2 2 0 0 1-2 2h-2a2 2 0 0 1-2-2 1 1 0 0 1 0-2h6a1 1 0 0 1 0 2z"
       fill="var(--color-shape)" />
  </symbol>
  <symbol
     viewBox="0 0 24 24"
     id="link">
    <path
       id="path2487"
       d="M19.48 13.03l-.02-.03a1 1 0 1 1 1.75-.98A6 6 0 0 1 16 21h-4a6 6 0 1 1 0-12h1a1 1 0 0 1 0 2h-1a4 4 0 1 0 0 8h4a4 4 0 0 0 3.48-5.97z"
       fill="var(--color-shape)" />
    <path
       id="path2489"
       d="M4.52 10.97l.02.03a1 1 0 1 1-1.75.98A6 6 0 0 1 8 3h4a6 6 0 1 1 0 12h-1a1 1 0 0 1 0-2h1a4 4 0 1 0 0-8H8a4 4 0 0 0-3.48 5.97z"
       fill="var(--color-base)" />
  </symbol>
  <symbol
     viewBox="0 0 24 24"
     id="location-pin">
    <g
       id="g2496">
      <path
         id="path2492"
         d="M12 1v6a3 3 0 0 0 0 6v9.31a1 1 0 0 1-.7-.29l-5.66-5.66A9 9 0 0 1 12 1z"
         fill="var(--color-shape)" />
      <path
         id="path2494"
         d="M12 1a9 9 0 0 1 6.36 15.36l-5.65 5.66a1 1 0 0 1-.71.3V13a3 3 0 0 0 0-6V1z"
         fill="var(--color-base)" />
    </g>
  </symbol>
  <symbol
     viewBox="0 0 24 24"
     id="lock-open">
    <g
       id="g2503">
      <path
         id="path2499"
         d="M12 19v3H5a2 2 0 0 1-2-2v-8c0-1.1.9-2 2-2h7v3a2 2 0 0 0-1 3.73V18a1 1 0 0 0 1 1z"
         fill="var(--color-shape)" />
      <path
         id="path2501"
         d="M12 19a1 1 0 0 0 1-1v-1.27A2 2 0 0 0 12 13v-3h7a2 2 0 0 1 2 2v8a2 2 0 0 1-2 2h-7v-3zm5-12a1 1 0 0 1-2 0 3 3 0 0 0-6 0v3H7V7a5 5 0 1 1 10 0z"
         fill="var(--color-base)" />
    </g>
  </symbol>
  <symbol
     viewBox="0 0 24 24"
     id="lock">
    <g
       id="g2510">
      <path
         id="path2506"
         d="M12 10v3a2 2 0 0 0-1 3.73V18a1 1 0 0 0 1 1v3H5a2 2 0 0 1-2-2v-8c0-1.1.9-2 2-2h7z"
         fill="var(--color-shape)" />
      <path
         id="path2508"
         d="M12 19a1 1 0 0 0 1-1v-1.27A2 2 0 0 0 12 13v-3h3V7a3 3 0 0 0-6 0v3H7V7a5 5 0 1 1 10 0v3h2a2 2 0 0 1 2 2v8a2 2 0 0 1-2 2h-7v-3z"
         fill="var(--color-base)" />
    </g>
  </symbol>
  <symbol
     viewBox="0 0 24 24"
     id="mail">
    <path
       id="path2513"
       d="M22 8.62V18a2 2 0 0 1-2 2H4a2 2 0 0 1-2-2V8.62l9.55 4.77a1 1 0 0 0 .9 0L22 8.62z"
       fill="var(--color-base)" />
    <path
       id="path2515"
       d="M12 11.38l-10-5V6c0-1.1.9-2 2-2h16a2 2 0 0 1 2 2v.38l-10 5z"
       fill="var(--color-shape)" />
  </symbol>
  <symbol
     viewBox="0 0 24 24"
     id="map">
    <g
       id="g2522">
      <path
         id="path2518"
         d="M9 21a1 1 0 0 1-.45-.1l-6-3A1 1 0 0 1 2 17V4a1 1 0 0 1 1.45-.9L9 5.89V21zm6-18a1 1 0 0 1 .45.1l6 3A1 1 0 0 1 22 7v13a1 1 0 0 1-1.45.9L15 18.12V3z"
         fill="var(--color-shape)" />
      <path
         id="path2520"
         d="M9 21V5.88l5.55-2.77A1 1 0 0 1 15 3v15.1L9.45 20.9A1 1 0 0 1 9 21z"
         fill="var(--color-base)" />
    </g>
  </symbol>
  <symbol
     viewBox="0 0 24 24"
     id="menu">
    <path
       id="path2525"
       d="M4 5h16a1 1 0 0 1 0 2H4a1 1 0 1 1 0-2zm0 6h16a1 1 0 0 1 0 2H4a1 1 0 0 1 0-2zm0 6h16a1 1 0 0 1 0 2H4a1 1 0 0 1 0-2z"
       fill-rule="evenodd"
       fill="var(--color-shape)" />
  </symbol>
  <symbol
     viewBox="0 0 24 24"
     id="microphone">
    <path
       id="path2528"
       d="M12 1a4 4 0 0 1 4 4v6a4 4 0 1 1-8 0V5a4 4 0 0 1 4-4z"
       fill="var(--color-shape)" />
    <path
       id="path2530"
       d="M13 18.94V21h3a1 1 0 0 1 0 2H8a1 1 0 0 1 0-2h3v-2.06A8 8 0 0 1 4 11a1 1 0 0 1 2 0 6 6 0 1 0 12 0 1 1 0 0 1 2 0 8 8 0 0 1-7 7.94z"
       fill="var(--color-base)" />
  </symbol>
  <symbol
     viewBox="0 0 24 24"
     id="money">
    <path
       id="path2533"
       d="M18 14.74a4 4 0 0 0-8 .26H3a2 2 0 0 1-2-2V5c0-1.1.9-2 2-2h14a2 2 0 0 1 2 2v8a2 2 0 0 1-1 1.74zM10 12a3 3 0 1 0 0-6 3 3 0 0 0 0 6z"
       fill="var(--color-shape)" />
    <path
       id="path2535"
       d="M7 9h14a2 2 0 0 1 2 2v8a2 2 0 0 1-2 2H7a2 2 0 0 1-2-2v-8c0-1.1.9-2 2-2zm7 9a3 3 0 1 0 0-6 3 3 0 0 0 0 6z"
       fill="var(--color-base)" />
  </symbol>
  <symbol
     viewBox="0 0 24 24"
     id="monitor">
    <path
       id="path2538"
       d="M21 14v5a2 2 0 0 1-2 2H5a2 2 0 0 1-2-2v-5h3a1 1 0 0 0 .83-.45L10 8.8l5.17 7.75a1 1 0 0 0 1.66 0l1.7-2.55H21z"
       fill="var(--color-shape)" />
    <path
       id="path2540"
       d="M21 12h-3a1 1 0 0 0-.83.45L16 14.2l-5.17-7.75a1 1 0 0 0-1.66 0L5.47 12H3V5c0-1.1.9-2 2-2h14a2 2 0 0 1 2 2v7z"
       fill="var(--color-base)" />
  </symbol>
  <symbol
     viewBox="0 0 24 24"
     id="mood-happy">
    <circle
       id="circle2543"
       fill="var(--color-base)"
       r="10"
       cy="12"
       cx="12" />
    <path
       id="path2545"
       d="M6.8 14h10.4a1 1 0 0 1 .86 1.5 7 7 0 0 1-12.12 0A1 1 0 0 1 6.8 14zm1.7-3a1.5 1.5 0 1 1 0-3 1.5 1.5 0 0 1 0 3zm7 0a1.5 1.5 0 1 1 0-3 1.5 1.5 0 0 1 0 3z"
       fill="var(--color-shape)" />
  </symbol>
  <symbol
     viewBox="0 0 24 24"
     id="mood-neutral">
    <circle
       id="circle2548"
       fill="var(--color-base)"
       r="10"
       cy="12"
       cx="12" />
    <path
       id="path2550"
       d="M8 15h8a1 1 0 0 1 0 2H8a1 1 0 0 1 0-2zm.5-4a1.5 1.5 0 1 1 0-3 1.5 1.5 0 0 1 0 3zm7 0a1.5 1.5 0 1 1 0-3 1.5 1.5 0 0 1 0 3z"
       fill="var(--color-shape)" />
  </symbol>
  <symbol
     viewBox="0 0 24 24"
     id="mood-sad">
    <circle
       id="circle2553"
       fill="var(--color-base)"
       r="10"
       cy="12"
       cx="12" />
    <path
       id="path2555"
       d="M16.47 18H7.53a1 1 0 0 1-.75-1.67 6.98 6.98 0 0 1 10.44 0 1 1 0 0 1-.75 1.67zM8.5 11a1.5 1.5 0 1 1 0-3 1.5 1.5 0 0 1 0 3zm7 0a1.5 1.5 0 1 1 0-3 1.5 1.5 0 0 1 0 3z"
       fill="var(--color-shape)" />
  </symbol>
  <symbol
     viewBox="0 0 24 24"
     id="news">
    <path
       id="path2558"
       d="M5 3h14a2 2 0 0 1 2 2v14a2 2 0 0 1-2 2H5a2 2 0 0 1-2-2V5c0-1.1.9-2 2-2zm2 3a1 1 0 0 0-1 1v4a1 1 0 0 0 1 1h3a1 1 0 0 0 1-1V7a1 1 0 0 0-1-1H7z"
       fill="var(--color-base)" />
    <path
       id="path2560"
       d="M7 14h10a1 1 0 0 1 1 1v2a1 1 0 0 1-1 1H7a1 1 0 0 1-1-1v-2a1 1 0 0 1 1-1zm7-8h3a1 1 0 0 1 0 2h-3a1 1 0 0 1 0-2zm0 4h3a1 1 0 0 1 0 2h-3a1 1 0 0 1 0-2z"
       fill="var(--color-shape)" />
  </symbol>
  <symbol
     viewBox="0 0 24 24"
     id="notification-off">
    <g
       id="g2567">
      <path
         id="path2563"
         d="M14.76 19l.23.23A3 3 0 0 1 9 19h5.76zM3.29 4.7a1 1 0 0 1 1.42-1.4l16 16a1 1 0 0 1-1.42 1.4l-16-16z"
         fill="var(--color-base)" />
      <path
         id="path2565"
         d="M8.94 4.7c.35-.17.7-.3 1.08-.42L10 4a2 2 0 1 1 3.98.28A7 7 0 0 1 19 11v3.76L8.94 4.7zM5.18 9.42L14.76 19H4a1 1 0 0 1 0-2 1 1 0 0 0 1-1v-5c0-.54.06-1.07.18-1.58z"
         fill="var(--color-shape)" />
    </g>
  </symbol>
  <symbol
     viewBox="0 0 24 24"
     id="notification">
    <circle
       id="circle2570"
       fill="var(--color-shape)"
       r="3"
       cy="19"
       cx="12" />
    <path
       id="path2572"
       d="M10.02 4.28L10 4a2 2 0 1 1 3.98.28A7 7 0 0 1 19 11v5a1 1 0 0 0 1 1 1 1 0 0 1 0 2H4a1 1 0 0 1 0-2 1 1 0 0 0 1-1v-5a7 7 0 0 1 5.02-6.72z"
       fill="var(--color-base)" />
  </symbol>
  <symbol
     viewBox="0 0 24 24"
     id="office">
    <path
       id="path2575"
       d="M5 9h15a2 2 0 0 1 2 2v8a2 2 0 0 1-2 2H5a2 2 0 0 1-2-2v-8c0-1.1.9-2 2-2zm12 2v3h3v-3h-3zm0 5v3h3v-3h-3zm-5 0v3h3v-3h-3zm0-5v3h3v-3h-3z"
       fill="var(--color-shape)" />
    <path
       id="path2577"
       d="M9 4h1a2 2 0 0 1 2 2v13a2 2 0 0 1-2 2H9v-6H5v6H4a2 2 0 0 1-2-2V6c0-1.1.9-2 2-2h1a2 2 0 1 1 4 0z"
       fill="var(--color-base)" />
  </symbol>
  <symbol
     viewBox="0 0 24 24"
     id="order-horizontal">
    <path
       id="path2580"
       d="M18.59 17H9a1 1 0 0 1 0-2h9.59l-2.3-2.3a1 1 0 0 1 1.42-1.4l4 4a1 1 0 0 1 0 1.4l-4 4a1 1 0 0 1-1.42-1.4l2.3-2.3z"
       fill="var(--color-shape)" />
    <path
       id="path2582"
       d="M5.41 7H15a1 1 0 0 1 0 2H5.41l2.3 2.3a1 1 0 0 1-1.42 1.4l-4-4a1 1 0 0 1 0-1.4l4-4a1 1 0 0 1 1.42 1.4L5.4 7z"
       fill="var(--color-base)" />
  </symbol>
  <symbol
     viewBox="0 0 24 24"
     id="order-vertical">
    <path
       id="path2585"
       d="M7 18.59V9a1 1 0 0 1 2 0v9.59l2.3-2.3a1 1 0 0 1 1.4 1.42l-4 4a1 1 0 0 1-1.4 0l-4-4a1 1 0 1 1 1.4-1.42L7 18.6z"
       fill="var(--color-shape)" />
    <path
       id="path2587"
       d="M17 5.41V15a1 1 0 1 1-2 0V5.41l-2.3 2.3a1 1 0 1 1-1.4-1.42l4-4a1 1 0 0 1 1.4 0l4 4a1 1 0 0 1-1.4 1.42L17 5.4z"
       fill="var(--color-base)" />
  </symbol>
  <symbol
     viewBox="0 0 24 24"
     id="package">
    <g
       id="g2594">
      <polygon
         id="polygon2590"
         points="15 3.333 15 4.67 18.008 4.67 21 6 14 12 12 22 3 18 3 6 12 2"
         fill="var(--color-shape)" />
      <path
         id="path2592"
         d="M21 6v12l-9 4V10l9-4zM9 8.67v3l-3-1.34v-3l9-4 3 1.34-9 4z"
         fill="var(--color-base)" />
    </g>
  </symbol>
  <symbol
     viewBox="0 0 24 24"
     id="paint">
    <path
       id="path2597"
       d="M13 14a1 1 0 0 1 1 1v6a1 1 0 0 1-1 1h-2a1 1 0 0 1-1-1v-6a1 1 0 0 1 1-1v-1.4a3 3 0 0 1 2.35-2.92l5.87-1.3A1 1 0 0 0 20 7.4V7a1 1 0 0 0-1-1h-1V4h1a3 3 0 0 1 3 3v.4a3 3 0 0 1-2.35 2.92l-5.87 1.3a1 1 0 0 0-.78.98V14z"
       fill="var(--color-shape)" />
    <rect
       id="rect2599"
       rx="2"
       fill="var(--color-base)"
       y="2"
       x="2"
       height="6"
       width="17" />
  </symbol>
  <symbol
     viewBox="0 0 24 24"
     id="pause">
    <circle
       id="circle2602"
       fill="var(--color-base)"
       r="10"
       cy="12"
       cx="12" />
    <path
       id="path2604"
       d="M9 8h1a1 1 0 0 1 1 1v6a1 1 0 0 1-1 1H9a1 1 0 0 1-1-1V9a1 1 0 0 1 1-1zm5 0h1a1 1 0 0 1 1 1v6a1 1 0 0 1-1 1h-1a1 1 0 0 1-1-1V9a1 1 0 0 1 1-1z"
       fill="var(--color-shape)" />
  </symbol>
  <symbol
     viewBox="0 0 24 24"
     id="phone-incoming-call">
    <path
       id="path2607"
       d="M4 2h4a1 1 0 0 1 .98.8l1 5a1 1 0 0 1-.27.9l-2.52 2.52a12.05 12.05 0 0 0 5.59 5.59l2.51-2.52a1 1 0 0 1 .9-.27l5 1c.47.1.81.5.81.98v4a2 2 0 0 1-2 2h-2A16 16 0 0 1 2 6V4c0-1.1.9-2 2-2z"
       fill="var(--color-base)" />
    <path
       id="path2609"
       d="M19.3 3.3a1 1 0 0 1 1.4 1.4L16.42 9H19a1 1 0 0 1 0 2h-5a1 1 0 0 1-1-1V5a1 1 0 0 1 2 0v2.59l4.3-4.3z"
       fill="var(--color-shape)" />
  </symbol>
  <symbol
     viewBox="0 0 24 24"
     id="phone-outgoing-call">
    <path
       id="path2612"
       d="M4 2h4a1 1 0 0 1 .98.8l1 5a1 1 0 0 1-.27.9l-2.52 2.52a12.05 12.05 0 0 0 5.59 5.59l2.51-2.52a1 1 0 0 1 .9-.27l5 1c.47.1.81.5.81.98v4a2 2 0 0 1-2 2h-2A16 16 0 0 1 2 6V4c0-1.1.9-2 2-2z"
       fill="var(--color-base)" />
    <path
       id="path2614"
       d="M14.7 10.7a1 1 0 0 1-1.4-1.4L17.58 5H15a1 1 0 0 1 0-2h5a1 1 0 0 1 1 1v5a1 1 0 0 1-2 0V6.41l-4.3 4.3z"
       fill="var(--color-shape)" />
  </symbol>
  <symbol
     viewBox="0 0 24 24"
     id="phone-ring">
    <path
       id="path2617"
       d="M4 2h4a1 1 0 0 1 .98.8l1 5a1 1 0 0 1-.27.9l-2.52 2.52a12.05 12.05 0 0 0 5.59 5.59l2.51-2.52a1 1 0 0 1 .9-.27l5 1c.47.1.81.5.81.98v4a2 2 0 0 1-2 2h-2A16 16 0 0 1 2 6V4c0-1.1.9-2 2-2z"
       fill="var(--color-base)" />
    <path
       id="path2619"
       d="M22 10a1 1 0 0 1-2 0 6 6 0 0 0-6-6 1 1 0 0 1 0-2 8 8 0 0 1 8 8zm-4 0a1 1 0 0 1-2 0 2 2 0 0 0-2-2 1 1 0 0 1 0-2 4 4 0 0 1 4 4z"
       fill="var(--color-shape)" />
  </symbol>
  <symbol
     viewBox="0 0 24 24"
     id="photo">
    <path
       id="path2622"
       d="M5 3h14a2 2 0 0 1 2 2v14a2 2 0 0 1-2 2H5a2 2 0 0 1-2-2V5c0-1.1.9-2 2-2zm9 6a2 2 0 1 0 0-4 2 2 0 0 0 0 4z"
       fill="var(--color-base)" />
    <path
       id="path2624"
       d="M15.3 12.3a1 1 0 0 1 1.4 0l2 2a1 1 0 0 1 .3.7v3a1 1 0 0 1-1 1H6a1 1 0 0 1-1-1v-3a1 1 0 0 1 .3-.7l4-4a1 1 0 0 1 1.4 0l3.3 3.29 1.3-1.3z"
       fill="var(--color-shape)" />
  </symbol>
  <symbol
     viewBox="0 0 24 24"
     id="pie-chart">
    <path
       id="path2627"
       d="M14 13h6.78a1 1 0 0 1 .97 1.22A10 10 0 1 1 9.78 2.25a1 1 0 0 1 1.22.97V10a3 3 0 0 0 3 3z"
       fill="var(--color-base)" />
    <path
       id="path2629"
       d="M20.78 11H14a1 1 0 0 1-1-1V3.22a1 1 0 0 1 1.22-.97c3.74.85 6.68 3.79 7.53 7.53a1 1 0 0 1-.97 1.22z"
       fill="var(--color-shape)" />
  </symbol>
  <symbol
     viewBox="0 0 24 24"
     id="pin">
    <path
       id="path2632"
       d="M2.24 20.35l6.5-7.5a1 1 0 0 1 1.47-.06l1 1a1 1 0 0 1-.06 1.47l-7.5 6.5c-.93.8-2.22-.48-1.4-1.41z"
       fill="var(--color-shape)" />
    <path
       id="path2634"
       d="M15 15.41V18a1 1 0 0 1-.3.7l-1 1a1 1 0 0 1-1.4 0l-8-8a1 1 0 0 1 0-1.4l1-1A1 1 0 0 1 6 9h2.59L13 4.59V3a1 1 0 0 1 1.7-.7l7 7A1 1 0 0 1 21 11h-1.59L15 15.41z"
       fill="var(--color-base)" />
  </symbol>
  <symbol
     viewBox="0 0 24 24"
     id="play">
    <circle
       id="circle2637"
       fill="var(--color-base)"
       r="10"
       cy="12"
       cx="12" />
    <path
       id="path2639"
       d="M15.51 11.14a1 1 0 0 1 0 1.72l-5 3A1 1 0 0 1 9 15V9a1 1 0 0 1 1.51-.86l5 3z"
       fill="var(--color-shape)" />
  </symbol>
  <symbol
     viewBox="0 0 24 24"
     id="presentation-play">
    <g
       id="g2648">
      <path
         id="path2642"
         d="M11 18.62l-6.55 3.27a1 1 0 0 1-.9-1.78L11 16.38V5a1 1 0 0 1 2 0v11.38l7.45 3.73a1 1 0 0 1-.9 1.78L13 18.62V21a1 1 0 0 1-2 0v-2.38z"
         fill="var(--color-base)" />
      <path
         id="path2644"
         d="M21 14a1 1 0 0 1 0 2H3a1 1 0 0 1 0-2V4a1 1 0 1 1 0-2h18a1 1 0 0 1 0 2v10z"
         fill="var(--color-shape)" />
      <path
         id="path2646"
         d="M15.51 8.14a1 1 0 0 1 0 1.72l-5 3A1 1 0 0 1 9 12V6a1 1 0 0 1 1.51-.86l5 3z"
         fill="var(--color-base)" />
    </g>
  </symbol>
  <symbol
     viewBox="0 0 24 24"
     id="presentation">
    <g
       id="g2655">
      <path
         id="path2651"
         d="M11 18.62l-6.55 3.27a1 1 0 0 1-.9-1.78L11 16.38V5a1 1 0 0 1 2 0v11.38l7.45 3.73a1 1 0 0 1-.9 1.78L13 18.62V21a1 1 0 0 1-2 0v-2.38z"
         fill="var(--color-base)" />
      <path
         id="path2653"
         d="M21 14a1 1 0 0 1 0 2H3a1 1 0 0 1 0-2V4a1 1 0 1 1 0-2h18a1 1 0 0 1 0 2v10z"
         fill="var(--color-shape)" />
    </g>
  </symbol>
  <symbol
     viewBox="0 0 24 24"
     id="print">
    <path
       id="path2658"
       d="M5 8h14a2 2 0 0 1 2 2v5a2 2 0 0 1-2 2H5a2 2 0 0 1-2-2v-5c0-1.1.9-2 2-2zm1 2a1 1 0 0 0 0 2h2a1 1 0 0 0 0-2H6z"
       fill="var(--color-shape)" />
    <path
       id="path2660"
       d="M6 14h12v6a1 1 0 0 1-1 1H7a1 1 0 0 1-1-1v-6zm0-6V4a1 1 0 0 1 1-1h10a1 1 0 0 1 1 1v4H6z"
       fill="var(--color-base)" />
  </symbol>
  <symbol
     viewBox="0 0 24 24"
     id="puzzle">
    <path
       id="path2663"
       d="M6 11V8c0-1.1.9-2 2-2h3a1 1 0 0 0 1-1V4a2 2 0 1 1 4 0v1a1 1 0 0 0 1 1h3a2 2 0 0 1 2 2v3a1 1 0 0 1-1 1h-1a2 2 0 1 0 0 4h1a1 1 0 0 1 1 1v3a2 2 0 0 1-2 2h-3a1 1 0 0 1-1-1v-1a2 2 0 1 0-4 0v1a1 1 0 0 1-1 1H8a2 2 0 0 1-2-2v-3a1 1 0 0 0-1-1H4a2 2 0 1 1 0-4h1a1 1 0 0 0 1-1z"
       fill="var(--color-base)" />
    <path
       id="path2665"
       d="M22 17v3a2 2 0 0 1-2 2h-3a1 1 0 0 1-1-1v-1a2 2 0 1 0-4 0v1a1 1 0 0 1-1 1H8a2 2 0 0 1-2-2v-3a1 1 0 0 0-1-1H4a2 2 0 1 1 0-4h1a1 1 0 0 0 1-1v-.6c.54-.24 1.18-.4 1.97-.4 4 0 4 4 8.02 4 .84 0 1.5-.18 2.06-.45A2 2 0 0 0 20 16h1a1 1 0 0 1 1 1z"
       fill="var(--color-shape)" />
  </symbol>
  <symbol
     viewBox="0 0 24 24"
     id="receipt">
    <path
       id="path2668"
       d="M9 18.41l-2.3 2.3a1 1 0 0 1-1.4 0l-2-2A1 1 0 0 1 3 18V5c0-1.1.9-2 2-2h14a2 2 0 0 1 2 2v13a1 1 0 0 1-.3.7l-2 2a1 1 0 0 1-1.4 0L15 18.42l-2.3 2.3a1 1 0 0 1-1.4 0L9 18.4z"
       fill="var(--color-base)" />
    <path
       id="path2670"
       d="M7 7h10a1 1 0 0 1 0 2H7a1 1 0 1 1 0-2zm0 4h10a1 1 0 0 1 0 2H7a1 1 0 0 1 0-2z"
       fill="var(--color-shape)" />
  </symbol>
  <symbol
     viewBox="0 0 24 24"
     id="refresh">
    <circle
       id="circle2673"
       fill="var(--color-base)"
       r="10"
       cy="12"
       cx="12" />
    <path
       id="path2675"
       d="M8.52 7.11a5.98 5.98 0 0 1 8.98 2.5 1 1 0 1 1-1.83.8 4 4 0 0 0-5.7-1.86l.74.74A1 1 0 0 1 10 11H7a1 1 0 0 1-1-1V7a1 1 0 0 1 1.7-.7l.82.81zm5.51 8.34l-.74-.74A1 1 0 0 1 14 13h3a1 1 0 0 1 1 1v3a1 1 0 0 1-1.7.7l-.82-.81A5.98 5.98 0 0 1 6.5 14.4a1 1 0 1 1 1.83-.8 4 4 0 0 0 5.7 1.85z"
       fill="var(--color-shape)" />
  </symbol>
  <symbol
     viewBox="0 0 24 24"
     id="remove-circle">
    <circle
       id="circle2678"
       fill="var(--color-base)"
       r="10"
       cy="12"
       cx="12" />
    <rect
       id="rect2680"
       rx="1"
       fill="var(--color-shape)"
       y="11"
       x="6"
       height="2"
       width="12" />
  </symbol>
  <symbol
     viewBox="0 0 24 24"
     id="remove-square">
    <rect
       id="rect2683"
       rx="2"
       fill="var(--color-base)"
       y="3"
       x="3"
       height="18"
       width="18" />
    <rect
       id="rect2685"
       rx="1"
       fill="var(--color-shape)"
       y="11"
       x="6"
       height="2"
       width="12" />
  </symbol>
  <symbol
     viewBox="0 0 24 24"
     id="remove">
    <path
       id="path2688"
       d="M17 11a1 1 0 0 1 0 2H7a1 1 0 0 1 0-2h10z"
       fill-rule="evenodd"
       fill="var(--color-shape)" />
  </symbol>
  <symbol
     viewBox="0 0 24 24"
     id="scale">
    <path
       id="path2691"
       d="M11 6.39L6.32 7.95a1 1 0 0 1-.64 0l-3-1a1 1 0 0 1 .64-1.9l2.68.9 5-1.67V3a1 1 0 0 1 2 0v1.28l5 1.67 2.68-.9a1 1 0 0 1 .64 1.9l-3 1a1 1 0 0 1-.64 0L13 6.39V18c0 1.1.9 2 2 2h1v2H8v-2h1a2 2 0 0 0 2-2V6.39z"
       fill="var(--color-base)" />
    <path
       id="path2693"
       d="M17.05 6.68a1 1 0 0 1 1.9 0l3 9a1 1 0 0 1-.4 1.15A6.36 6.36 0 0 1 18 18c-1.2 0-2.4-.4-3.55-1.17a1 1 0 0 1-.4-1.15l3-9zM19.61 15L18 10.16 16.39 15h3.22zM5.05 6.68a1 1 0 0 1 1.9 0l3 9a1 1 0 0 1-.4 1.15A6.36 6.36 0 0 1 6 18c-1.2 0-2.4-.4-3.55-1.17a1 1 0 0 1-.4-1.15l3-9zM7.61 15L6 10.16 4.39 15H7.6z"
       fill="var(--color-shape)" />
  </symbol>
  <symbol
     viewBox="0 0 24 24"
     id="search">
    <circle
       id="circle2696"
       fill="var(--color-base)"
       r="7"
       cy="10"
       cx="10" />
    <path
       id="path2698"
       d="M16.32 14.9l1.1 1.1c.4-.02.83.13 1.14.44l3 3a1.5 1.5 0 0 1-2.12 2.12l-3-3a1.5 1.5 0 0 1-.44-1.14l-1.1-1.1a8 8 0 1 1 1.41-1.41zM10 16a6 6 0 1 0 0-12 6 6 0 0 0 0 12z"
       fill="var(--color-shape)" />
  </symbol>
  <symbol
     viewBox="0 0 24 24"
     id="security-check">
    <path
       id="path2701"
       d="M4 4l8-2 8 2v9.06a8 8 0 0 1-4.42 7.15L12 22l-3.58-1.79A8 8 0 0 1 4 13.06V4z"
       fill="var(--color-base)" />
    <path
       id="path2703"
       d="M10.5 12.59l4.3-4.3a1 1 0 0 1 1.4 1.42l-5 5a1 1 0 0 1-1.4 0l-2-2a1 1 0 0 1 1.4-1.42l1.3 1.3z"
       fill="var(--color-shape)" />
  </symbol>
  <symbol
     viewBox="0 0 24 24"
     id="security-important">
    <path
       id="path2706"
       d="M4 4l8-2 8 2v9.06a8 8 0 0 1-4.42 7.15L12 22l-3.58-1.79A8 8 0 0 1 4 13.06V4z"
       fill="var(--color-base)" />
    <path
       id="path2708"
       d="M12 18a1.5 1.5 0 1 1 0-3 1.5 1.5 0 0 1 0 3zm1-5.9c-.13 1.2-1.88 1.2-2 0l-.5-5a1 1 0 0 1 1-1.1h1a1 1 0 0 1 1 1.1l-.5 5z"
       fill="var(--color-shape)" />
  </symbol>
  <symbol
     viewBox="0 0 24 24"
     id="security">
    <path
       id="path2711"
       d="M4 4l8-2 8 2v9.06a8 8 0 0 1-4.42 7.15L12 22l-3.58-1.79A8 8 0 0 1 4 13.06V4z"
       fill="var(--color-base)" />
    <path
       id="path2713"
       d="M6 12V5.56l6-1.5V12H6zm6 7.76V12h6v1.06a6 6 0 0 1-3.32 5.36L12 19.76z"
       fill="var(--color-shape)" />
  </symbol>
  <symbol
     viewBox="0 0 24 24"
     id="send">
    <g
       id="g2720"
       transform="translate(1 2)"
       fill="none">
      <path
         id="path2716"
         d="M12 1v15.97l-1 1.12-8.6 1.82a1 1 0 0 1-1.3-1.36l9-18A.99.99 0 0 1 11 0l1 1z"
         fill="var(--color-shape)" />
      <path
         id="path2718"
         d="M11 0c.36 0 .71.18.9.55l9 18a1 1 0 0 1-1.3 1.36L11 18.1V0z"
         fill="var(--color-base)" />
    </g>
  </symbol>
  <symbol
     viewBox="0 0 24 24"
     id="server">
    <path
       id="path2723"
       d="M5 3h14a2 2 0 0 1 2 2v4a2 2 0 0 1-2 2H5a2 2 0 0 1-2-2V5c0-1.1.9-2 2-2zm0 10h14a2 2 0 0 1 2 2v4a2 2 0 0 1-2 2H5a2 2 0 0 1-2-2v-4c0-1.1.9-2 2-2zm2 3a1 1 0 0 0 0 2h3a1 1 0 0 0 0-2H7z"
       fill="var(--color-base)" />
    <rect
       id="rect2725"
       rx="1"
       fill="var(--color-shape)"
       y="6"
       x="6"
       height="2"
       width="5" />
  </symbol>
  <symbol
     viewBox="0 0 24 24"
     id="shopping-bag">
    <path
       id="path2728"
       d="M5 8h14a1 1 0 0 1 1 .92l1 12A1 1 0 0 1 20 22H4a1 1 0 0 1-1-1.08l1-12A1 1 0 0 1 5 8z"
       fill="var(--color-base)" />
    <path
       id="path2730"
       d="M9 10a1 1 0 0 1-2 0V7a5 5 0 1 1 10 0v3a1 1 0 0 1-2 0V7a3 3 0 0 0-6 0v3z"
       fill="var(--color-shape)" />
  </symbol>
  <symbol
     viewBox="0 0 24 24"
     id="shopping-basket">
    <g
       id="g2739">
      <path
         id="path2733"
         d="M21.78 10l-2.81 11.24A1 1 0 0 1 18 22H6a1 1 0 0 1-.97-.76L2.22 10h19.56zM6.03 15.24l1 4a1 1 0 0 0 1.94-.48l-1-4a1 1 0 0 0-1.94.48zm10-.48l-1 4a1 1 0 0 0 1.94.48l1-4a1 1 0 0 0-1.94-.48zM11 15v4a1 1 0 0 0 2 0v-4a1 1 0 0 0-2 0z"
         fill="var(--color-shape)" />
      <rect
         id="rect2735"
         rx="1"
         fill="var(--color-base)"
         y="8"
         x="2"
         height="4"
         width="20" />
      <path
         id="path2737"
         d="M9.7 9.7a1 1 0 1 1-1.4-1.4l6-6a1 1 0 0 1 1.4 1.4l-6 6z"
         fill="var(--color-shape)" />
    </g>
  </symbol>
  <symbol
     viewBox="0 0 24 24"
     id="shopping-cart">
    <path
       id="path2742"
       d="M7 4h14a1 1 0 0 1 .9 1.45l-4 8a1 1 0 0 1-.9.55H7a1 1 0 0 1-1-1V5a1 1 0 0 1 1-1z"
       fill="var(--color-base)" />
    <path
       id="path2744"
       d="M17.73 19a2 2 0 1 1-3.46 0H8.73a2 2 0 1 1-3.42-.08A3 3 0 0 1 5 13.17V4H3a1 1 0 1 1 0-2h3a1 1 0 0 1 1 1v10h11a1 1 0 0 1 0 2H6a1 1 0 0 0 0 2h12a1 1 0 0 1 0 2h-.27z"
       fill="var(--color-shape)" />
  </symbol>
  <symbol
     viewBox="0 0 24 24"
     id="sign">
    <path
       id="path2747"
       d="M14 12h5l3 3-3 3h-5v4h-4v-4H4a1 1 0 0 1-1-1v-4a1 1 0 0 1 1-1h6v-1h4v1z"
       fill="var(--color-base)" />
    <path
       id="path2749"
       d="M10 4a2 2 0 1 1 4 0h6a1 1 0 0 1 1 1v4a1 1 0 0 1-1 1H5L2 7l3-3h5z"
       fill="var(--color-shape)" />
  </symbol>
  <symbol
     viewBox="0 0 24 24"
     id="sort-ascending">
    <path
       id="path2752"
       d="M18 13v7a1 1 0 0 1-2 0v-7h-3a1 1 0 0 1-.7-1.7l4-4a1 1 0 0 1 1.4 0l4 4A1 1 0 0 1 21 13h-3z"
       fill="var(--color-shape)" />
    <path
       id="path2754"
       d="M3 3h13a1 1 0 0 1 0 2H3a1 1 0 1 1 0-2zm0 4h9a1 1 0 0 1 0 2H3a1 1 0 1 1 0-2zm0 4h5a1 1 0 0 1 0 2H3a1 1 0 0 1 0-2z"
       fill="var(--color-base)" />
  </symbol>
  <symbol
     viewBox="0 0 24 24"
     id="sort-decending">
    <path
       id="path2757"
       d="M6 11V4a1 1 0 1 1 2 0v7h3a1 1 0 0 1 .7 1.7l-4 4a1 1 0 0 1-1.4 0l-4-4A1 1 0 0 1 3 11h3z"
       fill="var(--color-shape)" />
    <path
       id="path2759"
       d="M21 21H8a1 1 0 0 1 0-2h13a1 1 0 0 1 0 2zm0-4h-9a1 1 0 0 1 0-2h9a1 1 0 0 1 0 2zm0-4h-5a1 1 0 0 1 0-2h5a1 1 0 0 1 0 2z"
       fill="var(--color-base)" />
  </symbol>
  <symbol
     viewBox="0 0 24 24"
     id="star">
    <circle
       id="circle2762"
       fill="var(--color-base)"
       r="10"
       cy="12"
       cx="12" />
    <path
       id="path2764"
       d="M9.53 16.93a1 1 0 0 1-1.45-1.05l.47-2.76-2-1.95a1 1 0 0 1 .55-1.7l2.77-.4 1.23-2.51a1 1 0 0 1 1.8 0l1.23 2.5 2.77.4a1 1 0 0 1 .55 1.71l-2 1.95.47 2.76a1 1 0 0 1-1.45 1.05L12 15.63l-2.47 1.3z"
       fill="var(--color-shape)" />
  </symbol>
  <symbol
     viewBox="0 0 24 24"
     id="stop">
    <circle
       id="circle2767"
       fill="var(--color-base)"
       r="10"
       cy="12"
       cx="12" />
    <rect
       id="rect2769"
       rx="1"
       fill="var(--color-shape)"
       y="8.5"
       x="8.5"
       height="7"
       width="7" />
  </symbol>
  <symbol
     viewBox="0 0 24 24"
     id="store">
    <path
       id="path2772"
       d="M5 8h14a1 1 0 0 1 1 1v11a1 1 0 0 1-1 1H5a1 1 0 0 1-1-1V9a1 1 0 0 1 1-1zm1 2v7h12v-7H6z"
       fill="var(--color-base)" />
    <path
       id="path2774"
       d="M6 12a4 4 0 0 1-4-4 1 1 0 0 1 .1-.45l2-4A1 1 0 0 1 5 3h14a1 1 0 0 1 .9.55l2 4c.06.14.1.3.1.45a4 4 0 0 1-7 2.65 3.99 3.99 0 0 1-6 0A3.99 3.99 0 0 1 6 12z"
       fill="var(--color-shape)" />
  </symbol>
  <symbol
     viewBox="0 0 24 24"
     id="survey">
    <path
       id="path2777"
       d="M5 5h14a2 2 0 0 1 2 2v13a2 2 0 0 1-2 2H5a2 2 0 0 1-2-2V7c0-1.1.9-2 2-2zm3 7a1 1 0 0 0 0 2h8a1 1 0 0 0 0-2H8zm0 4a1 1 0 0 0 0 2h4a1 1 0 0 0 0-2H8z"
       fill="var(--color-base)" />
    <path
       id="path2779"
       d="M15 4a2 2 0 0 1 2 2v1a1 1 0 0 1-1 1H8a1 1 0 0 1-1-1V6c0-1.1.9-2 2-2 0-1.1.9-2 2-2h2a2 2 0 0 1 2 2z"
       fill="var(--color-shape)" />
  </symbol>
  <symbol
     viewBox="0 0 24 24"
     id="swatch">
    <path
       id="path2782"
       d="M9 22c.19-.14.37-.3.54-.46L17.07 14H20a2 2 0 0 1 2 2v4a2 2 0 0 1-2 2H9zM4 2h4a2 2 0 0 1 2 2v14a4 4 0 1 1-8 0V4c0-1.1.9-2 2-2zm2 17.5a1.5 1.5 0 1 0 0-3 1.5 1.5 0 0 0 0 3z"
       fill="var(--color-base)" />
    <path
       id="path2784"
       d="M11 18.66V7.34l2.07-2.07a2 2 0 0 1 2.83 0l2.83 2.83a2 2 0 0 1 0 2.83L11 18.66z"
       fill="var(--color-shape)" />
  </symbol>
  <symbol
     viewBox="0 0 24 24"
     id="tag">
    <path
       id="path2787"
       d="M2.59 13.41A1.98 1.98 0 0 1 2 12V7a5 5 0 0 1 5-5h4.99c.53 0 1.04.2 1.42.59l8 8a2 2 0 0 1 0 2.82l-8 8a2 2 0 0 1-2.82 0l-8-8zM7 9a2 2 0 1 0 0-4 2 2 0 0 0 0 4z"
       fill="var(--color-base)" />
    <path
       id="path2789"
       d="M12 18l6-6-4-4-6 6.01L12 18z"
       fill="var(--color-shape)" />
  </symbol>
  <symbol
     viewBox="0 0 24 24"
     id="target">
    <path
       id="path2792"
       d="M15.23 2.53l-.35.35a3 3 0 0 0-.8 1.4 8.01 8.01 0 1 0 5.64 5.63 3 3 0 0 0 1.4-.79l.35-.35A9.99 9.99 0 0 1 12 22a10 10 0 1 1 3.23-19.47zM13.55 6.2L11.75 8a4 4 0 1 0 4.24 4.25l1.8-1.8a6 6 0 1 1-4.24-4.25z"
       fill="var(--color-base)" />
    <path
       id="path2794"
       d="M16 6.59V5a1 1 0 0 1 .3-.7l2-2A1 1 0 0 1 20 3v1h1a1 1 0 0 1 .7 1.7l-2 2a1 1 0 0 1-.7.3h-1.59l-4.7 4.7a1 1 0 0 1-1.42-1.4L16 6.58z"
       fill="var(--color-shape)" />
  </symbol>
  <symbol
     viewBox="0 0 24 24"
     id="text-cursor">
    <circle
       id="circle2797"
       fill="var(--color-base)"
       r="10"
       cy="12"
       cx="12" />
    <path
       id="path2799"
       d="M12 7.35A3.99 3.99 0 0 1 15 6a1 1 0 0 1 0 2 2 2 0 0 0-2 2v4c0 1.1.9 2 2 2a1 1 0 0 1 0 2c-1.2 0-2.27-.52-3-1.35A3.99 3.99 0 0 1 9 18a1 1 0 0 1 0-2 2 2 0 0 0 2-2v-4a2 2 0 0 0-2-2 1 1 0 1 1 0-2c1.2 0 2.27.52 3 1.35z"
       fill="var(--color-shape)" />
  </symbol>
  <symbol
     viewBox="0 0 24 24"
     id="thermostat-full">
    <path
       id="path2802"
       d="M17 12.1a7 7 0 1 1-10 0V5a5 5 0 1 1 10 0v7.1zm-1.43 1.4l-.57-.58V5a3 3 0 0 0-6 0v7.92l-.57.58a5 5 0 1 0 7.14 0z"
       fill="var(--color-base)" />
    <path
       id="path2804"
       d="M11 14.17V5a1 1 0 0 1 2 0v9.17a3 3 0 1 1-2 0z"
       fill="var(--color-shape)" />
  </symbol>
  <symbol
     viewBox="0 0 24 24"
     id="thermostat-half">
    <path
       id="path2807"
       d="M17 12.1a7 7 0 1 1-10 0V5a5 5 0 1 1 10 0v7.1zm-1.43 1.4l-.57-.58V5a3 3 0 0 0-6 0v7.92l-.57.58a5 5 0 1 0 7.14 0z"
       fill="var(--color-base)" />
    <path
       id="path2809"
       d="M11 14.17V10a1 1 0 0 1 2 0v4.17a3 3 0 1 1-2 0z"
       fill="var(--color-shape)" />
  </symbol>
  <symbol
     viewBox="0 0 24 24"
     id="thumbs-down">
    <path
       id="path2812"
       d="M11 19.2l-2.92-6.8A1 1 0 0 1 8 12V4c0-1.1.9-2 2-2h6c1.5 0 3.11 1.06 3.7 2.45l2.22 5.16A1 1 0 0 1 22 10v2a3 3 0 0 1-3 3h-4v4a3 3 0 0 1-3 3 1 1 0 0 1-1-1v-1.8z"
       fill="var(--color-base)" />
    <rect
       id="rect2814"
       transform="rotate(180 4 7.5)"
       rx="1"
       fill="var(--color-shape)"
       y="2"
       x="2"
       height="11"
       width="4" />
  </symbol>
  <symbol
     viewBox="0 0 24 24"
     id="thumbs-up">
    <path
       id="path2817"
       d="M13 4.8l2.92 6.8a1 1 0 0 1 .08.4v8a2 2 0 0 1-2 2H8a4.28 4.28 0 0 1-3.7-2.45L2.07 14.4A1 1 0 0 1 2 14v-2a3 3 0 0 1 3-3h4V5a3 3 0 0 1 3-3 1 1 0 0 1 1 1v1.8z"
       fill="var(--color-base)" />
    <rect
       id="rect2819"
       rx="1"
       fill="var(--color-shape)"
       y="11"
       x="18"
       height="11"
       width="4" />
  </symbol>
  <symbol
     viewBox="0 0 24 24"
     id="ticket">
    <g
       id="g2826">
      <path
         id="path2822"
         d="M22 15v4a1 1 0 0 1-1 1H9V4h12a1 1 0 0 1 1 1v4a3 3 0 0 0 0 6z"
         fill="var(--color-shape)" />
      <path
         id="path2824"
         d="M9 20H3a1 1 0 0 1-1-1v-4a3 3 0 0 0 0-6V5a1 1 0 0 1 1-1h6v16z"
         fill="var(--color-base)" />
    </g>
  </symbol>
  <symbol
     viewBox="0 0 24 24"
     id="time">
    <circle
       id="circle2829"
       fill="var(--color-base)"
       r="10"
       cy="12"
       cx="12" />
    <path
       id="path2831"
       d="m 13,11.59 3.2,3.2 a 1,1 0 0 1 -1.4,1.42 l -3.5,-3.5 A 1,1 0 0 1 11,12 V 7 a 1,1 0 0 1 2,0 z"
       fill="var(--color-shape)" />
  </symbol>
  <symbol
     viewBox="0 0 24 24"
     id="translate">
    <path
       id="path2834"
       d="M10.41 10l1.3 1.3a1 1 0 0 1-1.42 1.4L9 11.42l-3.3 3.3a1 1 0 1 1-1.4-1.42L7.58 10l-1.3-1.3a1 1 0 0 1 1.42-1.4L9 8.58l.54-.54A5 5 0 0 0 10.98 5H3a1 1 0 1 1 0-2h5V2a1 1 0 1 1 2 0v1h5a1 1 0 0 1 0 2h-2.02a7 7 0 0 1-2.03 4.46l-.54.54z"
       fill="var(--color-base)" />
    <path
       id="path2836"
       d="M13.33 18l-1.4 3.38a1 1 0 0 1-1.85-.76l5-12a1 1 0 0 1 1.84 0l5 12a1 1 0 0 1-1.84.76L18.67 18h-5.34zm.84-2h3.66L16 11.6 14.17 16z"
       fill="var(--color-shape)" />
  </symbol>
  <symbol
     viewBox="0 0 24 24"
     id="trash">
    <path
       id="path2839"
       d="M5 5h14l-.89 15.12a2 2 0 0 1-2 1.88H7.9a2 2 0 0 1-2-1.88L5 5zm5 5a1 1 0 0 0-1 1v6a1 1 0 0 0 2 0v-6a1 1 0 0 0-1-1zm4 0a1 1 0 0 0-1 1v6a1 1 0 0 0 2 0v-6a1 1 0 0 0-1-1z"
       fill="var(--color-base)" />
    <path
       id="path2841"
       d="M8.59 4l1.7-1.7A1 1 0 0 1 11 2h2a1 1 0 0 1 .7.3L15.42 4H19a1 1 0 0 1 0 2H5a1 1 0 1 1 0-2h3.59z"
       fill="var(--color-shape)" />
  </symbol>
  <symbol
     viewBox="0 0 24 24"
     id="trending-down">
    <path
       id="path2844"
       d="M3.7 3.3a1 1 0 1 0-1.4 1.4l6 6a1 1 0 0 0 1.4 0L13 7.42l4.3 4.3a1 1 0 0 0 1.4-1.42l-5-5a1 1 0 0 0-1.4 0L9 8.6l-5.3-5.3z"
       fill="var(--color-shape)" />
    <path
       id="path2846"
       d="M16.59 17L13 13.41l-3.3 3.3a1 1 0 0 1-1.4 0l-6-6a1 1 0 0 1 1.4-1.42L9 14.6l3.3-3.3a1 1 0 0 1 1.4 0l4.3 4.3 2.3-2.3A1 1 0 0 1 22 14v6a1 1 0 0 1-1 1h-6a1 1 0 0 1-.7-1.7l2.29-2.3z"
       fill="var(--color-base)" />
  </symbol>
  <symbol
     viewBox="0 0 24 24"
     id="trending-up">
    <path
       id="path2849"
       d="M3.7 20.7a1 1 0 1 1-1.4-1.4l6-6a1 1 0 0 1 1.4 0l3.3 3.29 4.3-4.3a1 1 0 0 1 1.4 1.42l-5 5a1 1 0 0 1-1.4 0L9 15.4l-5.3 5.3z"
       fill="var(--color-base)" />
    <path
       id="path2851"
       d="M16.59 8l-2.3-2.3A1 1 0 0 1 15 4h6a1 1 0 0 1 1 1v6a1 1 0 0 1-1.7.7L18 9.42l-4.3 4.3a1 1 0 0 1-1.4 0L9 10.4l-5.3 5.3a1 1 0 1 1-1.4-1.42l6-6a1 1 0 0 1 1.4 0l3.3 3.3L16.59 8z"
       fill="var(--color-shape)" />
  </symbol>
  <symbol
     viewBox="0 0 24 24"
     id="trophy">
    <path
       id="path2854"
       d="M7 4v2H4v4c0 1.1.9 2 2 2h1v2H6a4 4 0 0 1-4-4V6c0-1.1.9-2 2-2h3zm10 2V4h3a2 2 0 0 1 2 2v4a4 4 0 0 1-4 4h-1v-2h1a2 2 0 0 0 2-2V6h-3zm-3 14h2a1 1 0 0 1 0 2H8a1 1 0 0 1 0-2h2a1 1 0 0 0 1-1v-3h2v3a1 1 0 0 0 1 1z"
       fill="var(--color-shape)" />
    <path
       id="path2856"
       d="M8 2h8a2 2 0 0 1 2 2v7a6 6 0 1 1-12 0V4c0-1.1.9-2 2-2z"
       fill="var(--color-base)" />
  </symbol>
  <symbol
     viewBox="0 0 24 24"
     id="tune">
    <path
       id="path2859"
       d="M5 3h14a2 2 0 0 1 2 2v14a2 2 0 0 1-2 2H5a2 2 0 0 1-2-2V5c0-1.1.9-2 2-2zm11 8a2 2 0 1 0 0-4 2 2 0 0 0 0 4zm-8 6a2 2 0 1 0 0-4 2 2 0 0 0 0 4z"
       fill="var(--color-base)" />
    <path
       id="path2861"
       d="M9.73 14H17a1 1 0 0 1 0 2H9.73a2 2 0 0 0 0-2zm4.54-6a2 2 0 0 0 0 2H7a1 1 0 1 1 0-2h7.27z"
       fill="var(--color-shape)" />
  </symbol>
  <symbol
     viewBox="0 0 24 24"
     id="umbrella">
    <path
       id="path2864"
       d="M11 3.05V2a1 1 0 0 1 2 0v1.05A10 10 0 0 1 22 13c0 1.33-2 1.33-2 0a2 2 0 1 0-4 0c0 1.33-2 1.33-2 0a2 2 0 1 0-4 0c0 1.33-2 1.33-2 0a2 2 0 1 0-4 0c0 1.33-2 1.33-2 0a10 10 0 0 1 9-9.95z"
       fill="var(--color-base)" />
    <path
       id="path2866"
       d="M11 14a1 1 0 0 1 2 0v5a3 3 0 0 1-6 0 1 1 0 0 1 2 0 1 1 0 0 0 2 0v-5z"
       fill="var(--color-shape)" />
  </symbol>
  <symbol
     viewBox="0 0 24 24"
     id="user-add">
    <path
       id="path2869"
       d="M 9,11 A 4,4 0 1 1 9,3 4,4 0 0 1 9,11 Z"
       fill="var(--color-base)" />
    <path
       id="path2871"
       d="M 17,9 V 7 a 1,1 0 0 1 2,0 v 2 h 2 a 1,1 0 0 1 0,2 h -2 v 2 a 1,1 0 0 1 -2,0 v -2 h -2 a 1,1 0 0 1 0,-2 z m -1,10 a 2,2 0 0 1 -2,2 H 4 A 2,2 0 0 1 2,19 v -1 a 5,5 0 0 1 5,-5 h 4 a 5,5 0 0 1 5,5 z"
       fill="var(--color-shape)" />
  </symbol>
  <symbol
     viewBox="0 0 24 24"
     id="user-check">
    <path
       id="path2874"
       d="M9 11a4 4 0 1 1 0-8 4 4 0 0 1 0 8z"
       fill="var(--color-base)" />
    <path
       id="path2876"
       d="M16 19a2 2 0 0 1-2 2H4a2 2 0 0 1-2-2v-1a5 5 0 0 1 5-5h4a5 5 0 0 1 5 5v1zm1-8.41l3.3-3.3a1 1 0 0 1 1.4 1.42l-4 4a1 1 0 0 1-1.4 0l-2-2a1 1 0 1 1 1.4-1.42l1.3 1.3z"
       fill="var(--color-shape)" />
  </symbol>
  <symbol
     viewBox="0 0 24 24"
     id="user-circle">
    <g
       id="g2883">
      <path
         id="path2879"
         d="M3.66 17.52a10 10 0 1 1 16.68 0C19.48 16.02 17.86 16 16 16H8c-1.86 0-3.48.01-4.34 1.52z"
         fill="var(--color-shape)" />
      <path
         id="path2881"
         d="M3.66 17.52A5 5 0 0 1 8 15h8a5 5 0 0 1 4.34 2.52 10 10 0 0 1-16.68 0zM12 13a4 4 0 1 1 0-8 4 4 0 0 1 0 8z"
         fill="var(--color-base)" />
    </g>
  </symbol>
  <symbol
     viewBox="0 0 24 24"
     id="user-couple">
    <path
       id="path2886"
       d="M15 11a4 4 0 1 1 0-8 4 4 0 0 1 0 8zm7 8a2 2 0 0 1-2 2H10a2 2 0 0 1-2-2v-1a5 5 0 0 1 5-5h4a5 5 0 0 1 5 5v1z"
       fill="var(--color-base)" />
    <path
       id="path2888"
       d="M9 11a4 4 0 1 1 0-8 4 4 0 0 1 0 8zm7 8a2 2 0 0 1-2 2H4a2 2 0 0 1-2-2v-1a5 5 0 0 1 5-5h4a5 5 0 0 1 5 5v1z"
       fill="var(--color-shape)" />
  </symbol>
  <symbol
     viewBox="0 0 24 24"
     id="user-group">
    <path
       id="path2891"
       d="M12 13a3 3 0 0 1 3-3h4a3 3 0 0 1 3 3v3a1 1 0 0 1-1 1h-8a1 1 0 0 1-1-1 1 1 0 0 1-1 1H3a1 1 0 0 1-1-1v-3a3 3 0 0 1 3-3h4a3 3 0 0 1 3 3zM7 9a3 3 0 1 1 0-6 3 3 0 0 1 0 6zm10 0a3 3 0 1 1 0-6 3 3 0 0 1 0 6z"
       fill="var(--color-base)" />
    <path
       id="path2893"
       d="M12 13a3 3 0 1 1 0-6 3 3 0 0 1 0 6zm-3 1h6a3 3 0 0 1 3 3v3a1 1 0 0 1-1 1H7a1 1 0 0 1-1-1v-3a3 3 0 0 1 3-3z"
       fill="var(--color-shape)" />
  </symbol>
  <symbol
     viewBox="0 0 24 24"
     id="user-remove">
    <path
       id="path2896"
       d="M9 11a4 4 0 1 1 0-8 4 4 0 0 1 0 8z"
       fill="var(--color-base)" />
    <path
       id="path2898"
       d="M15 9h6a1 1 0 0 1 0 2h-6a1 1 0 0 1 0-2zm1 10a2 2 0 0 1-2 2H4a2 2 0 0 1-2-2v-1a5 5 0 0 1 5-5h4a5 5 0 0 1 5 5v1z"
       fill="var(--color-shape)" />
  </symbol>
  <symbol
     viewBox="0 0 24 24"
     id="user">
    <path
       id="path2901"
       d="M 12,12 A 5,5 0 1 1 12,2 5,5 0 0 1 12,12 Z"
       fill="var(--color-base)" />
    <path
       id="path2903"
       d="M 21,20 V 19 A 5,5 0 0 0 16,14 H 8 a 5,5 0 0 0 -5,5 v 1 c 0,1.1 0.9,2 2,2 h 14 a 2,2 0 0 0 2,-2 z"
       fill="var(--color-shape)" />
  </symbol>
  <symbol
     viewBox="0 0 24 24"
     id="videocam">
    <path
       id="path2906"
       d="M13.59 12l6.7-6.7A1 1 0 0 1 22 6v12a1 1 0 0 1-1.7.7L13.58 12z"
       fill="var(--color-shape)" />
    <rect
       id="rect2908"
       rx="2"
       fill="var(--color-base)"
       y="5"
       x="2"
       height="14"
       width="14" />
  </symbol>
  <symbol
     viewBox="0 0 24 24"
     id="view-hidden">
    <path
       id="path2911"
       d="M15.1 19.34a8 8 0 0 1-8.86-1.68L1.3 12.7a1 1 0 0 1 0-1.42l2.88-2.88 2.8 2.8a5 5 0 0 0 5.73 5.73l2.4 2.4zM8.84 4.6a8 8 0 0 1 8.7 1.74l4.96 4.95a1 1 0 0 1 0 1.42l-2.78 2.78-2.87-2.87a5 5 0 0 0-5.58-5.58L8.85 4.6z"
       fill="var(--color-base)" />
    <path
       id="path2913"
       d="M3.3 4.7l16 16a1 1 0 0 0 1.4-1.4l-16-16a1 1 0 0 0-1.4 1.4z"
       fill="var(--color-shape)" />
  </symbol>
  <symbol
     viewBox="0 0 24 24"
     id="view-visible">
    <path
       id="path2916"
       d="M17.56 17.66a8 8 0 0 1-11.32 0L1.3 12.7a1 1 0 0 1 0-1.42l4.95-4.95a8 8 0 0 1 11.32 0l4.95 4.95a1 1 0 0 1 0 1.42l-4.95 4.95zM11.9 17a5 5 0 1 0 0-10 5 5 0 0 0 0 10z"
       fill="var(--color-base)" />
    <circle
       id="circle2918"
       fill="var(--color-shape)"
       r="3"
       cy="12"
       cx="12" />
  </symbol>
  <symbol
     viewBox="0 0 24 24"
     id="volume-down">
    <path
       id="path2921"
       d="M6.59 16H3a1 1 0 0 1-1-1V9a1 1 0 0 1 1-1h3.59l4.7-4.7A1 1 0 0 1 13 4v16a1 1 0 0 1-1.7.7L6.58 16z"
       fill="var(--color-base)" />
    <path
       id="path2923"
       d="M14.83 9.17a1 1 0 1 1 1.41-1.41 6 6 0 0 1 0 8.48 1 1 0 0 1-1.41-1.41 4 4 0 0 0 0-5.66z"
       fill="var(--color-shape)" />
  </symbol>
  <symbol
     viewBox="0 0 24 24"
     id="volume-mute">
    <path
       id="path2926"
       d="M6.59 16H3a1 1 0 0 1-1-1V9a1 1 0 0 1 1-1h3.59l4.7-4.7A1 1 0 0 1 13 4v16a1 1 0 0 1-1.7.7L6.58 16z"
       fill="var(--color-base)" />
    <path
       id="path2928"
       d="M17.09 12l-1.8-1.8a1 1 0 1 1 1.42-1.4l1.79 1.79 1.8-1.8a1 1 0 0 1 1.4 1.42L19.92 12l1.8 1.8a1 1 0 0 1-1.42 1.4l-1.79-1.79-1.8 1.8a1 1 0 0 1-1.4-1.42L17.08 12z"
       fill="var(--color-shape)" />
  </symbol>
  <symbol
     viewBox="0 0 24 24"
     id="volume-up">
    <path
       id="path2931"
       d="M6.59 16H3a1 1 0 0 1-1-1V9a1 1 0 0 1 1-1h3.59l4.7-4.7A1 1 0 0 1 13 4v16a1 1 0 0 1-1.7.7L6.58 16z"
       fill="var(--color-base)" />
    <path
       id="path2933"
       d="M17.66 6.34a1 1 0 0 1 1.41-1.41 10 10 0 0 1 0 14.14 1 1 0 0 1-1.41-1.41 8 8 0 0 0 0-11.32zm-2.83 2.83a1 1 0 1 1 1.41-1.41 6 6 0 0 1 0 8.48 1 1 0 0 1-1.41-1.41 4 4 0 0 0 0-5.66z"
       fill="var(--color-shape)" />
  </symbol>
  <symbol
     viewBox="0 0 24 24"
     id="wallet">
    <path
       id="path2936"
       d="m 2,5 c 0,1.1 0.9,2 2,2 h 16 a 2,2 0 0 1 2,2 v 10 a 2,2 0 0 1 -2,2 H 4 A 2,2 0 0 1 2,19 Z m 16,11 a 2,2 0 1 0 0,-4 2,2 0 0 0 0,4 z"
       fill="var(--color-base)" />
    <path
       id="path2938"
       d="m 4,3 h 11 a 2,2 0 0 1 2,2 V 7 H 4 A 2,2 0 1 1 4,3 Z"
       fill="var(--color-shape)" />
  </symbol>
  <symbol
     viewBox="0 0 24 24"
     id="widget-add">
    <path
       id="path2941"
       d="M5 13h4a2 2 0 0 1 2 2v4a2 2 0 0 1-2 2H5a2 2 0 0 1-2-2v-4c0-1.1.9-2 2-2zm10 0h4a2 2 0 0 1 2 2v4a2 2 0 0 1-2 2h-4a2 2 0 0 1-2-2v-4c0-1.1.9-2 2-2zM5 3h4a2 2 0 0 1 2 2v4a2 2 0 0 1-2 2H5a2 2 0 0 1-2-2V5c0-1.1.9-2 2-2z"
       fill="var(--color-base)" />
    <path
       id="path2943"
       d="M18 6h2a1 1 0 0 1 0 2h-2v2a1 1 0 0 1-2 0V8h-2a1 1 0 0 1 0-2h2V4a1 1 0 0 1 2 0v2z"
       fill="var(--color-shape)" />
  </symbol>
  <symbol
     viewBox="0 0 24 24"
     id="wifi-off">
    <path
       id="path2946"
       d="m 9.37,13.6 1.54,1.55 c -0.64,0.18 -1.24,0.52 -1.74,1.02 A 1,1 0 1 1 7.76,14.76 6,6 0 0 1 9.36,13.61 Z M 6.44,10.68 7.89,12.13 C 7.34,12.46 6.82,12.87 6.34,13.34 A 1,1 0 0 1 4.93,11.93 C 5.4,11.46 5.91,11.04 6.44,10.68 Z m 6.9,-1.6 a 9.96,9.96 0 0 1 5.73,2.85 1,1 0 0 1 -1.41,1.41 8.09,8.09 0 0 0 -0.68,-0.6 L 13.33,9.1 Z M 3.56,7.83 5,9.25 C 4.48,9.62 3.98,10.05 3.51,10.51 A 1,1 0 1 1 2.11,9.11 C 2.57,8.63 3.06,8.21 3.57,7.81 Z m 5.9,-2.6 c 4.37,-0.79 9.05,0.5 12.43,3.88 a 1,1 0 1 1 -1.41,1.41 11.97,11.97 0 0 0 -9.22,-3.49 z"
       fill="var(--color-base)" />
    <path
       id="path2948"
       d="m 12,20.5 a 1.5,1.5 0 1 1 0,-3 1.5,1.5 0 0 1 0,3 z M 3.3,4.7 A 1,1 0 0 1 4.7,3.3 l 16,16 a 1,1 0 0 1 -1.4,1.4 z"
       fill="var(--color-shape)" />
  </symbol>
  <symbol
     viewBox="0 0 24 24"
     id="wifi">
    <path
       id="path2951"
       d="m 9.17,16.17 a 1,1 0 1 1 -1.41,-1.41 6,6 0 0 1 8.48,0 1,1 0 0 1 -1.41,1.41 4,4 0 0 0 -5.66,0 z M 6.34,13.34 a 1,1 0 0 1 -1.41,-1.41 10,10 0 0 1 14.14,0 1,1 0 0 1 -1.41,1.41 8,8 0 0 0 -11.32,0 z M 3.51,10.51 a 1,1 0 1 1 -1.4,-1.4 14,14 0 0 1 19.79,0 1,1 0 1 1 -1.41,1.4 12,12 0 0 0 -16.98,0 z"
       fill="var(--color-base)" />
    <path
       id="path2953"
       d="m 12,20.5 a 1.5,1.5 0 1 0 0,-3 1.5,1.5 0 0 0 0,3 z"
       fill="var(--color-shape)" />
  </symbol>
  <symbol
     viewBox="0 0 24 24"
     id="work">
    <path
       id="path2956"
       d="M 10,14.92 V 16 a 1,1 0 0 0 1,1 h 2 a 1,1 0 0 0 1,-1 v -1.08 c 2.83,-0.24 5.53,-0.96 8,-2.1 V 20 a 2,2 0 0 1 -2,2 H 4 A 2,2 0 0 1 2,20 v -7.18 a 23.85,23.85 0 0 0 8,2.1 z"
       fill="var(--color-base)" />
    <path
       id="path2958"
       d="M 14,12.92 V 12 a 1,1 0 0 0 -1,-1 h -2 a 1,1 0 0 0 -1,1 v 0.92 A 23.85,23.85 0 0 1 2,10.82 V 8 C 2,6.9 2.9,6 4,6 H 7 V 5 a 3,3 0 0 1 3,-3 h 4 a 3,3 0 0 1 3,3 v 1 h 3 a 2,2 0 0 1 2,2 v 2.82 a 23.85,23.85 0 0 1 -8,2.1 z M 15,6 V 5 A 1,1 0 0 0 14,4 H 10 A 1,1 0 0 0 9,5 v 1 z"
       fill="var(--color-shape)" />
  </symbol>
  <symbol
     viewBox="0 0 24 24"
     id="zoom-in">
    <circle
       id="circle2961"
       fill="var(--color-base)"
       r="7"
       cy="10"
       cx="10" />
    <path
       id="path2963"
       d="m 16.32,14.9 1.1,1.1 c 0.4,-0.02 0.83,0.13 1.14,0.44 l 3,3 a 1.5,1.5 0 0 1 -2.12,2.12 l -3,-3 A 1.5,1.5 0 0 1 16,17.42 l -1.1,-1.1 a 8,8 0 1 1 1.41,-1.41 z M 10,16 a 6,6 0 1 0 0,-12 6,6 0 0 0 0,12 z m 1,-7 h 2 a 1,1 0 0 1 0,2 h -2 v 2 A 1,1 0 0 1 9,13 V 11 H 7 A 1,1 0 0 1 7,9 H 9 V 7 a 1,1 0 1 1 2,0 z"
       fill="var(--color-shape)" />
  </symbol>
  <symbol
     viewBox="0 0 24 24"
     id="zoom-out">
    <circle
       id="circle2966"
       fill="var(--color-base)"
       r="7"
       cy="10"
       cx="10" />
    <path
       style="display:inline"
       id="path2968"
       d="m 16.32,14.9 1.1,1.1 c 0.4,-0.02 0.83,0.13 1.14,0.44 l 3,3 a 1.5,1.5 0 0 1 -2.12,2.12 l -3,-3 A 1.5,1.5 0 0 1 16,17.42 l -1.1,-1.1 a 8,8 0 1 1 1.41,-1.41 z M 10,16 a 6,6 0 1 0 0,-12 6,6 0 0 0 0,12 z m 4,-6 a 1,1 0 0 1 -1,1 H 7 A 1,1 0 0 1 7,9 h 6 a 1,1 0 0 1 1,1 z"
       fill="var(--color-shape)" />
  </symbol>
  <symbol
     viewBox="0 0 24 24"
     id="facebook">
    <path
       style="display:inline;stroke-width:0.0446429"
       id="path2971"
       class=""
       d="M 20.857142,3 H 5.1428571 A 2.1428571,2.1428571 0 0 0 3,5.1428571 V 20.857142 A 2.1428571,2.1428571 0 0 0 5.1428571,23 H 11.270089 V 16.200446 H 8.4575893 V 13 h 2.8124997 v -2.439286 c 0,-2.7745534 1.651786,-4.3071426 4.181697,-4.3071426 1.211607,0 2.478571,0.2160715 2.478571,0.2160715 v 2.7232142 h -1.395982 c -1.375446,0 -1.804464,0.8535719 -1.804464,1.7290179 V 13 h 3.070535 l -0.491071,3.200446 H 14.729911 V 23 h 6.127231 A 2.1428571,2.1428571 0 0 0 23,20.857142 V 5.1428571 A 2.1428571,2.1428571 0 0 0 20.857142,3 Z"
       fill="var(--color-shape)" />
  </symbol>
</svg>
